<svg width="873" height="591" fill="none" xmlns="http://www.w3.org/2000/svg"><g clip-path="url(#a)"><path d="M58.73 444.734c-4.143 0-8.296.171-12.351.516l-.59.05C18.89 447.678-.785 461.473.023 477.39l.157 2.878c.103 1.819.213 3.775.303 5.945.05 1.07 1.51 1.892 3.326 1.892h661.64c46.649-.284 93.129-.64 138.141-1.06 8.442.018 16.878-.42 25.273-1.31 12.509-1.48 21.191-4.415 26.545-8.971h.002c6.658-5.651 6.868-12.766 6.465-20.805-.82-16.232-1.633-33.285-2.445-50.286-.717-14.984-1.431-29.927-2.144-44.234-.442-8.49-1.423-15.984-8.984-21.711-8.195-6.195-23.141-9.334-44.423-9.334l-.773.001c-66.697.237-132.783 23.17-164.445 57.067-3.646 3.903-7.044 8.082-10.33 12.124-4.855 5.971-9.874 12.144-15.864 17.664a74.625 74.625 0 0 1-10.479 8.169c-.257.178-.552.368-.863.549-.712.464-1.456.911-2.181 1.309a75.731 75.731 0 0 1-13.365 6.077l-.469.157c-.352.126-.734.252-1.117.367a87.684 87.684 0 0 1-8.254 2.206c-12.069 2.66-25.793 3.298-40.789 1.894a197.157 197.157 0 0 1-40.557-8.265c-13.886-4.389-26.884-9.86-39.454-15.152-5.521-2.325-11.232-4.728-16.935-7.005a481.25 481.25 0 0 0-3.197-1.267c-6.966-2.715-13.281-4.957-19.307-6.854a190.558 190.558 0 0 0-46.008-8.522c-16.588-.908-31.206.805-43.437 5.079a74.497 74.497 0 0 0-9.826 4.234c-14.487 7.523-23.419 18.627-32.055 29.365-10.744 13.356-21.853 27.169-43.79 34.329-25.313 8.269-62.262 4.834-88.403-1.141-8.219-1.879-16.428-4.04-24.366-6.131-3.207-.844-6.415-1.683-9.626-2.516-6.31-1.629-11.473-2.877-16.251-3.931l-1.511-.336c-.84-.182-1.681-.365-2.538-.539-5.674-1.191-10.958-2.129-16.162-2.866l-1.231-.18a230.27 230.27 0 0 0-7.04-.823l-.904-.09a144.534 144.534 0 0 0-13.622-.633z" fill="#F2F2F2"/><path d="M742.905 462.499c18.617-16.777 46.309-25.213 69.537-15.805a115.465 115.465 0 0 0-51.888 59.934c-3.698 9.839-6.787 21.167-15.882 26.434-5.66 3.277-12.7 3.438-19.046 1.855-6.346-1.582-12.162-4.754-17.899-7.894l-1.632-.037c7.328-23.966 18.192-47.711 36.81-64.487z" fill="#E6E6E6"/><path d="M812.312 447.203a98.684 98.684 0 0 0-54.906 25.93 42.492 42.492 0 0 0-8.346 10.377 24.365 24.365 0 0 0-2.817 12.516c.1 4.058.673 8.198-.215 12.21a14.935 14.935 0 0 1-2.676 5.638 14.936 14.936 0 0 1-4.748 4.05c-4.546 2.613-9.76 3.437-14.886 4.065-5.692.698-11.615 1.333-16.543 4.525-.597.387-1.162-.562-.566-.948 8.573-5.555 19.42-3.534 28.637-7.241 4.301-1.73 8.107-4.766 9.454-9.357 1.178-4.015.591-8.284.454-12.392a26.007 26.007 0 0 1 2.299-12.34 39.283 39.283 0 0 1 7.916-10.66 95.74 95.74 0 0 1 24.333-17.419 100.413 100.413 0 0 1 32.6-10.059c.703-.091.708 1.015.01 1.105z" fill="#fff"/><path d="M762.006 468.275a14.807 14.807 0 0 1 1.632-19.104c.506-.499 1.305.265.798.764a13.715 13.715 0 0 0-1.482 17.774c.415.577-.535 1.14-.948.566zM745.921 493.975a28.54 28.54 0 0 0 20.393-4.084c.599-.384 1.164.564.567.949a29.694 29.694 0 0 1-21.231 4.206c-.7-.127-.426-1.197.271-1.071zM790.005 452.431a8.383 8.383 0 0 0 6.269 4.895c.702.117.427 1.187-.271 1.071a9.39 9.39 0 0 1-6.946-5.4.567.567 0 0 1 .191-.757.556.556 0 0 1 .757.191z" fill="#fff"/><path d="M838.02 527.598a77.432 77.432 0 0 0-1.328-.175 110.324 110.324 0 0 0-17.882-.909c-.462.007-.931.021-1.392.041a116.364 116.364 0 0 0-41.75 9.61 113.159 113.159 0 0 0-15.163 8.055c-6.688 4.235-13.602 9.358-21.078 11.085-.778.189-1.567.329-2.362.421l-30.889-26.746c-.039-.096-.085-.185-.126-.281l-1.282-1.012c.239-.175.49-.352.729-.528.138-.102.283-.199.421-.301.094-.066.189-.133.27-.198.031-.022.063-.044.088-.059.082-.066.164-.118.239-.176a358.168 358.168 0 0 1 4.235-2.954c.006-.008.006-.007.019-.009a166.198 166.198 0 0 1 34.601-18.599c.367-.139.74-.285 1.121-.411a107.708 107.708 0 0 1 16.939-4.766 95.45 95.45 0 0 1 9.553-1.335 79.258 79.258 0 0 1 24.723 1.752c16.143 3.743 30.91 12.608 39.656 26.432.223.354.44.702.658 1.063z" fill="#E6E6E6"/><path d="M837.611 527.93a98.692 98.692 0 0 0-59.452-12.353 42.515 42.515 0 0 0-12.91 3.26 24.385 24.385 0 0 0-9.785 8.297c-2.363 3.301-4.398 6.951-7.523 9.62a14.927 14.927 0 0 1-11.761 3.266c-5.203-.651-9.862-3.132-14.333-5.717-4.965-2.87-10.076-5.929-15.933-6.346-.709-.051-.589-1.149.119-1.099 10.189.726 17.633 8.871 27.225 11.461 4.475 1.208 9.342 1.075 13.182-1.78 3.358-2.496 5.459-6.258 7.823-9.621a26.024 26.024 0 0 1 9.265-8.469 39.295 39.295 0 0 1 12.738-3.745 95.752 95.752 0 0 1 29.917.742 100.428 100.428 0 0 1 32.085 11.596c.616.351-.045 1.237-.657.888z" fill="#fff"/><path d="M784.758 514.467a14.807 14.807 0 0 1 12.805-14.27c.704-.094.883.997.177 1.09a13.71 13.71 0 0 0-11.884 13.299c-.016.711-1.114.588-1.098-.119zM756.441 525.303a28.545 28.545 0 0 0 18.742 9.018c.71.053.59 1.151-.119 1.098a29.683 29.683 0 0 1-19.483-9.424c-.484-.522.38-1.212.86-.692zM816.652 518.675a8.38 8.38 0 0 0 2.059 7.682c.49.516-.374 1.205-.861.692a9.395 9.395 0 0 1-2.296-8.493.57.57 0 0 1 .609-.49.557.557 0 0 1 .489.609z" fill="#fff"/><path d="M255.543 479.184c15.245-23.123 42.515-39.849 69.975-36.25a127.608 127.608 0 0 0-38.822 78.538c-1.218 11.551-1.37 24.526-9.632 32.69-5.141 5.079-12.627 7.21-19.854 7.283-7.227.073-14.33-1.701-21.34-3.464l-1.756.415c1.17-27.671 6.184-56.09 21.429-79.212z" fill="#E6E6E6"/><path d="M325.521 443.515a109.074 109.074 0 0 0-51.51 43.009 46.945 46.945 0 0 0-6.039 13.42 26.93 26.93 0 0 0 .469 14.169c1.236 4.313 3 8.581 3.167 13.119a16.494 16.494 0 0 1-5.245 12.428c-4.135 4.059-9.482 6.391-14.79 8.489-5.894 2.33-12.053 4.656-16.434 9.441-.531.58-1.4-.278-.87-.856 7.623-8.326 19.787-9.182 28.614-15.711 4.119-3.047 7.345-7.353 7.509-12.638.143-4.622-1.673-9.024-2.963-13.38a28.75 28.75 0 0 1-.974-13.838 43.44 43.44 0 0 1 5.501-13.603 105.782 105.782 0 0 1 21.179-25.4 110.975 110.975 0 0 1 32.068-19.827c.727-.293 1.04.888.318 1.178z" fill="#fff"/><path d="M277.579 480.048a16.368 16.368 0 0 1-3.568-20.886c.402-.675 1.469-.081 1.066.594a15.15 15.15 0 0 0 3.359 19.422c.605.502-.256 1.368-.857.87zM267.526 512.009a31.535 31.535 0 0 0 20.675-10.041c.533-.578 1.402.28.87.857a32.809 32.809 0 0 1-21.536 10.405c-.785.06-.79-1.161-.009-1.221zM303.118 455.313a9.265 9.265 0 0 0 8.066 3.491c.783-.07.787 1.151.009 1.22a10.373 10.373 0 0 1-8.932-3.842.632.632 0 0 1-.006-.863.613.613 0 0 1 .863-.006z" fill="#fff"/><path d="M375.382 522.349a87.76 87.76 0 0 0-1.469.181 122.038 122.038 0 0 0-19.378 4.004c-.492.135-.989.28-1.477.43a128.603 128.603 0 0 0-41.98 21.893 125.048 125.048 0 0 0-13.976 12.834c-5.974 6.389-11.944 13.793-19.459 17.719-.78.419-1.585.789-2.41 1.108l-40.477-20.012c-.069-.092-.143-.175-.213-.266l-1.652-.726c.206-.254.426-.513.632-.767.119-.148.247-.292.367-.44.082-.097.165-.194.233-.286.028-.033.055-.065.078-.088.069-.093.142-.171.207-.254a395.468 395.468 0 0 1 3.707-4.339c.005-.009.005-.009.018-.014 9.539-10.948 20.076-21.195 31.833-29.518.354-.251.712-.51 1.084-.751a119.039 119.039 0 0 1 16.791-9.811 105.416 105.416 0 0 1 9.846-4.085 87.628 87.628 0 0 1 26.929-5.004c18.308-.488 36.567 4.885 49.767 17.238.338.316.666.628.999.954z" fill="#E6E6E6"/><path d="M375.037 522.818a109.066 109.066 0 0 0-67.022 3.327 46.973 46.973 0 0 0-12.901 7.079 26.929 26.929 0 0 0-8.157 11.596c-1.609 4.187-2.77 8.657-5.369 12.381a16.494 16.494 0 0 1-11.671 6.765c-5.745.752-11.418-.606-16.92-2.127-6.108-1.688-12.426-3.538-18.806-2.355-.773.143-.95-1.065-.178-1.208 11.099-2.058 21.327 4.582 32.306 4.683 5.123.048 10.291-1.449 13.603-5.57 2.897-3.604 4.098-8.212 5.691-12.466a28.746 28.746 0 0 1 7.553-11.636 43.425 43.425 0 0 1 12.582-7.549 105.83 105.83 0 0 1 32.203-7.53c12.621-.99 25.318.186 37.542 3.477.756.204.296 1.335-.456 1.133z" fill="#fff"/><path d="M314.764 523.122a16.365 16.365 0 0 1 9.725-18.825c.728-.296 1.222.821.493 1.117a15.156 15.156 0 0 0-9.011 17.53c.181.764-1.028.938-1.207.178zM287.493 542.589a31.544 31.544 0 0 0 22.554 4.431c.774-.141.951 1.067.178 1.207a32.802 32.802 0 0 1-23.459-4.659c-.663-.424.068-1.402.727-.98v.001zM350.047 518.749a9.262 9.262 0 0 0 4.338 7.643c.668.416-.064 1.394-.727.98a10.376 10.376 0 0 1-4.819-8.445.635.635 0 0 1 .515-.693.614.614 0 0 1 .693.515z" fill="#fff"/><path d="M364.038 305.828a9.752 9.752 0 0 0 2.841-7.754 9.758 9.758 0 0 0-4.122-7.157l15.932-77.106-17.189 5.422-12.818 74.595a9.81 9.81 0 0 0 2.348 12.821 9.809 9.809 0 0 0 13.008-.821z" fill="#FFB6B6"/><path d="m400.865 99.72-10.648-8.038s-9.393-.665-11.057 16.274c-1.663 16.938-12.079 81.95-12.079 81.95l-16.293 75.463 22.554 4.95 17.451-81.438 17.469-56.184-7.397-32.978z" fill="#E6E6E6"/><path d="m392.753 239.353-51.075-39.714a3.805 3.805 0 0 1-.668-5.338l34.751-44.693a3.805 3.805 0 0 1 5.338-.668l51.075 39.713a3.807 3.807 0 0 1 .668 5.339l-34.751 44.693a3.81 3.81 0 0 1-5.338.668z" fill="#3F3D56"/><path d="m392.472 235.243-46.742-36.344a3.38 3.38 0 0 1-.594-4.74l31.504-40.516a3.378 3.378 0 0 1 4.74-.593l46.742 36.344a3.384 3.384 0 0 1 .593 4.74l-31.503 40.516a3.384 3.384 0 0 1-4.74.593z" fill="#fff"/><path d="M351.858 197.868a.845.845 0 0 1-.149-1.185l15.893-20.439a.838.838 0 0 1 .89-.296.83.83 0 0 1 .51.397.844.844 0 0 1-.067.936l-15.892 20.439a.846.846 0 0 1-1.185.148zM354.492 199.916a.847.847 0 0 1-.149-1.185l15.893-20.439a.843.843 0 0 1 1.504.413.842.842 0 0 1-.171.624l-15.892 20.439a.844.844 0 0 1-1.185.148zM366.129 190.385a.846.846 0 0 1-.148-1.185l6.889-8.86a.847.847 0 0 1 1.186-.15.844.844 0 0 1 .147 1.187l-6.889 8.859a.845.845 0 0 1-1.185.149zM369.681 207.771a.843.843 0 0 1-.149-1.185l25.09-32.267a.83.83 0 0 1 .249-.215.85.85 0 0 1 .936.067.856.856 0 0 1 .319.562.843.843 0 0 1-.171.623l-25.09 32.267a.841.841 0 0 1-1.184.148zM372.315 209.819a.843.843 0 0 1-.149-1.185l25.09-32.267a.847.847 0 0 1 .89-.296.856.856 0 0 1 .614.71.844.844 0 0 1-.171.623L373.5 209.671a.846.846 0 0 1-1.185.148zM378.294 214.469a.844.844 0 0 1-.149-1.185l25.09-32.268a.856.856 0 0 1 .562-.319.843.843 0 0 1 .771 1.356l-25.089 32.267a.845.845 0 0 1-1.185.149zM380.928 216.516a.846.846 0 0 1-.149-1.185l25.09-32.267a.856.856 0 0 1 .562-.319.844.844 0 0 1 .771 1.356l-25.089 32.267a.842.842 0 0 1-1.185.148zM386.907 221.166a.846.846 0 0 1-.148-1.185l25.089-32.267a.845.845 0 1 1 1.333 1.036l-25.089 32.267a.847.847 0 0 1-1.185.149zM389.541 223.214a.846.846 0 0 1-.148-1.185l25.089-32.267a.847.847 0 0 1 1.503.414.845.845 0 0 1-.17.623l-25.089 32.267a.846.846 0 0 1-1.185.148z" fill="#E4E4E4"/><path d="M347.608 260.687a.347.347 0 1 0 0-.693.347.347 0 0 0 0 .693z" fill="#fff"/><path d="M398.128 21.796a83.462 83.462 0 0 1-5.957 19.01c-15.673 33.157 28.962 22.35 44.913 22.35 17.44 0 34.126 9.17 31.578-31.578C467.573 14.172 454.524 0 437.084 0c-14.897 0-35.841 6.621-38.956 21.796z" fill="#2F2E41"/><path d="M453.34 508.085h-14.859l-7.071-57.313h21.93v57.313z" fill="#FFB6B6"/><path d="M461.183 533.83h-10.656l-1.902-10.06-4.872 10.06h-28.262a6.353 6.353 0 0 1-3.61-11.581l22.57-15.587v-10.171l23.738 1.417 2.994 35.922z" fill="#2F2E41"/><path d="m541.617 489.333-11.924 8.867-39.873-41.771 17.598-13.087 34.199 45.991z" fill="#FFB6B6"/><path d="m563.273 505.312-8.551 6.359-7.53-6.938 2.095 10.98-22.679 16.864a6.35 6.35 0 0 1-7.53.039 6.355 6.355 0 0 1-2.278-7.178l8.81-25.975-6.069-8.162 19.895-13.028 23.837 27.039z" fill="#2F2E41"/><path d="m404.675 244.313 70.535-10.986-14.027-42.198h-56.508v53.184z" fill="#FFB6B6"/><path d="M470.639 212.382s28.193 24.357 15.185 93.793l-15.88 68.035 43.266 75.116-22 12-53.318-74.105-24.398-57.23-12.905-100.301 70.05-17.308z" fill="#2F2E41"/><path d="m426.942 346.301-1.696 26.261 4.964 77.765 24.644 8.485 4.667-79.678-32.579-32.833z" fill="#2F2E41"/><path d="m419.365 71.895 27.265 1.064 10.867 18.038 24.792 4.84-14.801 74.873 2.722 42.616-24.686-.15a72.207 72.207 0 0 0-48.314 18.15l.739-55.32-10.619-41.295 2.387-43.302 19.944-2.493 9.704-17.02z" fill="#E6E6E6"/><path d="M434.471 63.148c14.172 0 25.66-11.489 25.66-25.66 0-14.173-11.488-25.661-25.66-25.661s-25.661 11.488-25.661 25.66 11.489 25.66 25.661 25.66z" fill="#FFB6B6"/><path d="M417.045 11.33a29.391 29.391 0 0 1 44.688 25.653c-13.075 3.282-26.812 5.795-40.756.785l-3.293-8.06-1.941 8.066c-4.247 1.735-8.504 3.204-12.762-.017a30.02 30.02 0 0 1 14.064-26.427z" fill="#2F2E41"/><path d="m477.543 265.062 3.459 31.392a3.834 3.834 0 0 0 1.385 1.956c.66.487 1.458.749 2.277.749h15.945a3.83 3.83 0 0 0 3.663-2.705l2.865-24.061a5.82 5.82 0 1 0 1.501-10.946 3.795 3.795 0 0 0-2.908-1.344h-24.525a3.833 3.833 0 0 0-3.777 3.188 3.822 3.822 0 0 0 .115 1.771zm30.095 5.704 1.755-5.704a3.8 3.8 0 0 0 .058-2.029c.075-.004.145-.022.221-.022a4.155 4.155 0 0 1 0 8.31 4.095 4.095 0 0 1-2.034-.555z" fill="#E7301C"/><path d="M501.587 299.181a9.762 9.762 0 0 1 1.357-14.905l-15.54-77.186 17.161 5.51 12.439 74.658a9.817 9.817 0 0 1-2.413 12.809 9.815 9.815 0 0 1-13.004-.886z" fill="#FFB6B6"/><path d="m471.641 103.874 10.648-8.037s9.392-.665 11.056 16.274c1.664 16.939 12.079 81.95 12.079 81.95l16.293 75.463-22.553 4.95-17.451-81.437-17.469-56.184 7.397-32.979z" fill="#E6E6E6"/><path d="M379.745 174.138a6.027 6.027 0 1 0 0-12.055 6.027 6.027 0 0 0 0 12.055z" fill="#E7301C"/><path d="m187.545 578.006 12.561-.001 5.976-48.449-18.539.001.002 48.449z" fill="#FFB6B6"/><path d="m184.341 573.905 3.536-.001 13.803-5.613 7.398 5.613h.001a15.767 15.767 0 0 1 15.764 15.764v.512l-40.501.002-.001-16.277z" fill="#2F2E41"/><path d="m236.221 570.09 12.253 2.767 16.501-45.943-18.084-4.083-10.67 47.259z" fill="#FFB6B6"/><path d="m233.999 565.384 3.449.779 14.701-2.435 5.98 7.104h.001a15.767 15.767 0 0 1 11.905 18.85l-.113.499-39.507-8.92 3.584-15.877zM164.55 328.79l11.358 127.26s-4.256 76.401 9.477 103.286h19.917l9.861-110.263 1.239-74.009 42.699 62.439-27.197 120.03 24.513 2.192 44.133-130.262-48.486-122.284-87.514 21.611z" fill="#2F2E41"/><path d="M176.446 126.131c16.178 0 29.293-13.115 29.293-29.293 0-16.178-13.115-29.293-29.293-29.293-16.178 0-29.293 13.115-29.293 29.293 0 16.178 13.115 29.293 29.293 29.293z" fill="#FFB8B8"/><path d="m227.941 154.046-24.032-10.311-11.699-12.408-29.225 4.713-7.754 13.295-25.101 23.341 29.409 132.973-.891 29.043s18.823 8.473 100.453-11.037c.979-.234-1.07-1.258-1.07-1.258l-30.09-168.351z" fill="#3F3D56"/><path d="M145.986 113.46c-.205-.279-.407-.56-.607-.843-.08.17-.144.346-.236.512l.843.331zM205.585 75.412a18.697 18.697 0 0 0-9.78-9.448 17.845 17.845 0 0 0-13.379.012c-3.873-2.447-8.176-4.387-12.707-4.627-4.532-.24-9.323 1.441-12.115 5.142a19.786 19.786 0 0 1-2.117 2.75c-2.245 2.078-5.656 1.778-8.64 1.353l4.016 3.441-4.86 1.27 5.671 3.44c-5.488 3.293-7.982 10.483-7.323 17.013.623 6.182 3.608 11.835 7.176 16.86 1.423-3.004 1.116-6.598 1.093-9.981-.025-3.574.607-7.633 3.472-9.63 1.932-1.348 4.416-1.408 6.746-1.395 11.752.064 23.49.797 35.159 2.195a9.895 9.895 0 0 1 4.501 1.305c2.581 1.76 3.084 5.394 3.343 8.581a62.184 62.184 0 0 0 1.984-16.117 29.703 29.703 0 0 0-2.24-12.164z" fill="#2F2E41"/><path d="M214.704 418c25.464 0 46.106-20.642 46.106-46.105 0-25.463-20.642-46.105-46.106-46.105-25.463 0-46.105 20.642-46.105 46.105 0 25.463 20.642 46.105 46.105 46.105z" fill="#fff"/><path d="M214.704 324.765c-2.37 0-4.736.179-7.079.533-1.199.174-2.367.4-3.525.676a47.11 47.11 0 0 0-35.18 34.726 47.108 47.108 0 0 0 17.63 48.96 47.118 47.118 0 1 0 49.613-79.73 47.13 47.13 0 0 0-21.459-5.165zm0 92.21a44.813 44.813 0 0 1-26.638-8.739 40.5 40.5 0 0 1-2.438-1.926 45.05 45.05 0 0 1-14.599-45.602 45.042 45.042 0 0 1 12.605-21.487 45.044 45.044 0 0 1 25.558-12.069 45.08 45.08 0 1 1 5.512 89.823z" fill="#3F3D56"/><path d="M192.091 362.674h45.227a3 3 0 0 0 3-3v-.148a3 3 0 0 0-3-3h-45.227a3 3 0 0 0-3 3v.148a3 3 0 0 0 3 3zM192.091 374.969h45.227a3 3 0 0 0 3-3v-.148a3 3 0 0 0-3-3h-45.227a3 3 0 0 0-3 3v.148a3 3 0 0 0 3 3zM192.091 387.263h45.227a3 3 0 0 0 3-3v-.147a3 3 0 0 0-3-3h-45.227a3 3 0 0 0-3 3v.147a3 3 0 0 0 3 3z" fill="#E7301C"/><path d="m730.52 576.442-13.171-.001-6.266-50.802 19.439.001-.002 50.802zM668.209 576.442l-13.17-.001-6.266-50.802 19.439.001-.003 50.802z" fill="#9E616A"/><path d="m668.673 590.182-40.501-.002v-.512a15.765 15.765 0 0 1 15.764-15.764h.001l7.398-5.613 13.803 5.613 3.536.001-.001 16.277zM732.673 590.182l-40.501-.002v-.512a15.765 15.765 0 0 1 15.764-15.764h.001l7.398-5.613 13.803 5.613 3.536.001-.001 16.277zM655.29 275.779l-20.017 121.884 5.448 18.163-7.149 12.863 10.498 112.97-4.261 9.382 11.905 7.342h24.226l1.286-102.273 5.984-15.016v-8.275l12.182-62.364 2.243 87.337 3.544 15.039-2.977 10.708 3.89 7.502 10.331 69.571h27.165l-2.101-16.186a11.96 11.96 0 0 0 6.281-13.237l-1.558-7.095 3.545-20.976 6.455-117.024-1.82-94.423-31.778-24.3-63.322 8.408z" fill="#2F2E41"/><path d="M701.179 119.265c13.939 0 25.239-11.3 25.239-25.24 0-13.938-11.3-25.238-25.239-25.238s-25.239 11.3-25.239 25.239 11.3 25.239 25.239 25.239zM646.035 324.146a10.81 10.81 0 0 0 2.981-8.641 10.806 10.806 0 0 0-4.711-7.834l9.815-37.114-18.909 6.36-6.421 34.27a10.861 10.861 0 0 0 17.245 12.959z" fill="#9E616A"/><path d="m656.364 145.951-4.059-.842-3.461 1.916s-9.669 12.892-9.669 24.71c0 11.817-11.818 125.695-11.818 125.695l21.487 9.668 17.189-89.168-9.669-71.979z" fill="#E6E6E6"/><path d="M723.281 75.522s6.601-12.62-7.921-13.767c0 0-12.381-11.23-25-2.053 0 0-6.884 0-10.648 7.79 0 0-5.413-2.054-6.603 3.44 0 0-3.961 11.473 0 21.798 3.961 10.325 5.277 11.472 5.277 11.472s-6.509-21.647 9.335-22.794c15.844-1.147 33.574-11.049 34.895 1.57 1.32 12.62 3.307 15.73 3.307 15.73s12.542-18.024-2.642-23.186z" fill="#2F2E41"/><path d="M815.477 428.689a7.72 7.72 0 0 1-5.163-1.97l-76.381-67.991a7.79 7.79 0 0 1-.638-10.984l48.93-54.968a7.792 7.792 0 0 1 10.985-.639l76.381 67.993a7.777 7.777 0 0 1 .639 10.983l-48.931 54.968a7.724 7.724 0 0 1-5.36 2.594c-.155.01-.308.014-.462.014z" fill="#fff"/><path d="M815.476 429.189a8.218 8.218 0 0 1-5.494-2.095l-76.381-67.992a8.288 8.288 0 0 1-.679-11.691l48.93-54.968a8.293 8.293 0 0 1 11.691-.679l76.381 67.992a8.278 8.278 0 0 1 .679 11.69l-48.93 54.968a8.235 8.235 0 0 1-6.197 2.775zM788.04 291.671a6.273 6.273 0 0 0-4.694 2.102l-48.93 54.968a6.285 6.285 0 0 0 .515 8.867l76.381 67.992a6.288 6.288 0 0 0 4.54 1.579 6.29 6.29 0 0 0 4.326-2.095l48.931-54.968a6.28 6.28 0 0 0-.515-8.866l-76.381-67.992a6.259 6.259 0 0 0-4.173-1.587z" fill="#3F3D56"/><path d="M843.175 376.632a3.354 3.354 0 0 1-2.237-.851l-59.956-53.371a3.365 3.365 0 0 1 2.04-5.883 3.361 3.361 0 0 1 2.437.854l59.956 53.371a3.366 3.366 0 0 1-2.24 5.88zM831.738 389.478a3.352 3.352 0 0 1-2.236-.85l-59.956-53.372a3.362 3.362 0 0 1 .772-5.544 3.365 3.365 0 0 1 3.705.516l59.956 53.371a3.366 3.366 0 0 1-2.241 5.879zM820.302 402.327a3.352 3.352 0 0 1-2.237-.852l-59.956-53.37a3.367 3.367 0 1 1 4.477-5.029l59.956 53.371a3.366 3.366 0 0 1-2.24 5.88z" fill="#E7301C"/><path d="M751.737 326.337a10.805 10.805 0 0 1 5.911-15.475l.065-38.391 16.635 11.011-2.612 34.768a10.864 10.864 0 0 1-6.407 12.926 10.863 10.863 0 0 1-13.592-4.839z" fill="#9E616A"/><path d="m753.275 156.471 7.432-7.163 5.46 3.94s5.371 6.446 9.669 25.784c4.297 19.337 0 125.695 0 125.695l-23.635-3.223 3.223-55.865-9.669-47.27 7.52-41.898z" fill="#E6E6E6"/><path d="m764.25 151.055-25.04-11.96-17-15.768-31-.232-10 13-26.4 8.968 4.4 91.032-3 7s2.09 1.888 3.045 2.944c.955 1.056-1.319 9.896-1.319 9.896l-1.283 9.618 3.557 2.542-4.624 5.462-1.148 8.61s80.715-20.062 95.966 13.172c.806 1.756-1.178-15.405-1.178-15.405l-1.984-12.563 1.968-11.276 3-3-5.031-5.032 3.225-23.874 13.846-73.134z" fill="#3F3D56"/><path d="M196.41 352.866a11.6 11.6 0 0 0-8.504-15.622l-5.562-40.844-16.127 14.098 7.754 36.624a11.661 11.661 0 0 0 22.439 5.744z" fill="#FFB8B8"/><path d="m133.225 171.929-4.372.837-2.642 3.327s-4.275 16.766.595 28.483c4.869 11.717 40.076 129.497 40.076 129.497l25.288.733-19.699-95.494-39.246-67.383z" fill="#3F3D56"/><path d="M232.917 346.875a11.6 11.6 0 0 1 2.065-17.666l-10.067-39.973 20.22 7.068 6.461 36.875a11.663 11.663 0 0 1-18.679 13.696z" fill="#FFB8B8"/><path d="m224.082 155.426 4.368-.853 3.692 2.101s10.218 13.964 10.069 26.652c-.15 12.687 11.097 135.101 11.097 135.101l-23.191 10.109-17.327-95.952 11.292-77.158z" fill="#3F3D56"/></g><defs><clipPath id="a"><path fill="#fff" d="M0 0h872.699v590.182H0z"/></clipPath></defs></svg>