<svg width="696" height="678" fill="none" xmlns="http://www.w3.org/2000/svg"><path d="M23.678 22.189c6.12 0 11.08-4.968 11.08-11.095C34.758 4.967 29.798 0 23.678 0s-11.08 4.967-11.08 11.094 4.96 11.095 11.08 11.095zM61.953 22.189c6.119 0 11.08-4.968 11.08-11.095C73.032 4.967 68.072 0 61.953 0c-6.12 0-11.08 4.967-11.08 11.094s4.96 11.095 11.08 11.095zM100.228 22.189c6.119 0 11.079-4.968 11.079-11.095 0-6.127-4.96-11.094-11.079-11.094-6.12 0-11.08 4.967-11.08 11.094s4.96 11.095 11.08 11.095z" fill="#3F3D56"/><path d="M656.884 81.92H20.907v337.396h635.977V81.92z" fill="#F0F0F0"/><path d="M656.884 145.075v-3.309H533.085V81.92h-3.305v59.846h-123.8V81.92h-3.304v59.846h-123.8V81.92h-3.304v59.846h-123.8V81.92h-3.305v59.846H20.907v3.309h127.56v66.115H20.907v3.309h127.56v66.114H20.907v3.309h127.56v66.103H20.907v3.309h127.56v65.982h3.305v-65.982h123.8v65.982h3.304v-65.982h123.8v65.982h3.304v-65.982h123.8v65.982h3.305v-65.982h123.799v-3.309H533.085v-66.103h123.799v-3.309H533.085v-66.114h123.799v-3.309H533.085v-66.115h123.799zm-381.312 204.95h-123.8v-66.103h123.8v66.103zm0-69.412h-123.8v-66.114h123.8v66.114zm0-69.423h-123.8v-66.115h123.8v66.115zm127.104 138.835h-123.8v-66.103h123.8v66.103zm0-69.412h-123.8v-66.114h123.8v66.114zm0-69.423h-123.8v-66.115h123.8v66.115zM529.78 350.025h-123.8v-66.103h123.8v66.103zm0-69.412h-123.8v-66.114h123.8v66.114zm0-69.423h-123.8v-66.115h123.8v66.115z" fill="#fff"/><path d="M218.947 161.153H176.4v41.246h42.547v-41.246zM610.665 294.707h-42.547v41.245h42.547v-41.245zM232.164 363.288h-42.547v41.245h42.547v-41.245z" fill="#CACACA"/><path d="M244.739 153.501h-42.547v41.246h42.547v-41.246z" fill="#E7301C"/><path d="m444.745 324.951 50.489-45.044 14.895 7.39-60.555 63.598-4.829-25.944z" fill="#FFB6B6"/><path d="M501.879 295.388c6.636 0 12.016-5.386 12.016-12.031 0-6.645-5.38-12.032-12.016-12.032s-12.016 5.387-12.016 12.032c0 6.645 5.38 12.031 12.016 12.031zM397.485 663.983h-11.947l-5.684-46.142 17.632.001-.001 46.141z" fill="#FFB6B6"/><path d="m400.531 675.579-38.521-.002v-.487c0-3.982 1.58-7.801 4.392-10.616a14.98 14.98 0 0 1 10.601-4.398h.001l23.528.001-.001 15.502z" fill="#2F2E41"/><path d="M354.228 663.983H342.28l-5.683-46.142 17.632.001-.001 46.141z" fill="#FFB6B6"/><path d="m357.274 675.579-38.521-.002v-.487c0-3.982 1.58-7.801 4.391-10.616a14.983 14.983 0 0 1 10.602-4.398h.001l23.528.001-.001 15.502zM407.518 400.225s30.04-2.406 20.428 50.534c-9.613 52.94-29.525 197.757-29.525 197.757L380.369 651l-10.665-193.182L361.636 651l-22.959-2.484-22.479-207.383s-7.218-16.674-.004-28.189c7.213-11.516 91.324-12.719 91.324-12.719z" fill="#2F2E41"/><path d="m388.293 269.079 8.34-4.475s20.549-1.755 28.935 22.416l22.24 33.635 36.047-31.283 15.621 10.829-45.431 54.293-18.89 2.417-40.854-52.94-6.008-34.892z" fill="#3F3D56"/><path d="M358.029 171.46c-34.266 0-43.858 37.692-43.858 58.956 0 21.264 19.636 18.048 43.858 18.048 10.397 0 19.942.588 27.459-.417l3.615-8.84 2.91 7.325c6.17-2.27 9.874-6.884 9.874-16.116 0-21.264-8.411-58.956-43.858-58.956z" fill="#2F2E41"/><path d="M357.882 248.428c16.3 0 29.513-13.23 29.513-29.551 0-16.321-13.213-29.551-29.513-29.551-16.299 0-29.512 13.23-29.512 29.551 0 16.321 13.213 29.551 29.512 29.551z" fill="#FFB6B6"/><path d="M323.784 215.978h11.672l5.15-14.438 1.03 14.438h5.579l3.004-8.422.6 8.422h41.455a31.3 31.3 0 0 0-9.15-22.12 31.22 31.22 0 0 0-22.091-9.163h-6.008a31.22 31.22 0 0 0-22.091 9.163 31.3 31.3 0 0 0-9.15 22.12z" fill="#2F2E41"/><path d="M521.105 237.724h-42.548v41.245h42.548v-41.245z" fill="#E7301C"/><path d="M416.856 389.338c-4.531.059-18.18-81.034-18.18-81.034l-2.043-43.7-14.913-.502v-.982a7.443 7.443 0 0 0-2.175-5.259 7.425 7.425 0 0 0-5.252-2.178H345.89a7.421 7.421 0 0 0-7.403 6.964l-11.695-.394-20.254 64.435s18.663 59.871 9.656 86.256c0 0 87.761 7.546 104.563-9.204 0 0 .63-14.46-3.901-14.402z" fill="#3F3D56"/><path d="m331.818 270.282-5.026-8.029s-16.354-4.048-23.087 6.803c-6.733 10.851-26.523 69.647-26.523 69.647l20.427 7.219 23.18-32.541 11.029-43.099z" fill="#3F3D56"/><path d="M382.922 312.321h-42.547v41.246h42.547v-41.246z" fill="#E7301C"/><path d="m307.731 327.228-14.803-1.568a14.562 14.562 0 0 0 .187 12.727 14.531 14.531 0 0 0 10.12 7.704l58.569 11.705-6.109-18.841-47.964-11.727z" fill="#FFB6B6"/><path d="M361.981 358.013c6.636 0 12.016-5.387 12.016-12.032 0-6.645-5.38-12.032-12.016-12.032s-12.016 5.387-12.016 12.032c0 6.645 5.38 12.032 12.016 12.032z" fill="#FFB6B6"/><path d="M346.981 358.379 302.36 348.17a19.267 19.267 0 0 1-8.667-4.564 19.303 19.303 0 0 1-5.31-8.239l-1.803-5.568 11.58-9.125 53.053 14.848-4.232 22.857z" fill="#3F3D56"/></svg>