<svg width="176" height="176" fill="none" xmlns="http://www.w3.org/2000/svg"><path d="M99.766 26.499c-6.652-7.818-12.38-15.759-13.55-17.407a.297.297 0 0 0-.332-.068.297.297 0 0 0-.099.068c-1.17 1.649-6.898 9.589-13.55 17.407C15.145 98.63 81.229 147.31 81.229 147.31l.554.367c.493 7.512 1.725 18.323 1.725 18.323h4.927s1.231-10.75 1.724-18.323l.554-.428c.062.061 66.146-48.618 9.054-120.75zM85.97 146.21s-2.956-2.503-3.757-3.786v-.122l3.572-78.546c0-.244.37-.244.37 0l3.572 78.546v.122c-.8 1.283-3.757 3.786-3.757 3.786z" fill="#01EC64"/></svg>