<svg width="78" height="59" fill="none" xmlns="http://www.w3.org/2000/svg"><path d="M67.146 33.88a15.95 15.95 0 0 0-7.07 1.66c-.73-1.46-1.462-2.737-1.584-3.69-.137-1.107-.304-1.784-.137-3.106.168-1.322.93-3.198.93-3.351-.016-.139-.168-.815-1.737-.83-1.57-.016-2.926.307-3.078.722a17.798 17.798 0 0 0-.655 2.352c-.274 1.446-3.139 6.565-4.769 9.256-.533-1.046-.99-1.968-1.082-2.706-.137-1.107-.304-1.783-.137-3.106.168-1.322.93-3.198.93-3.351-.016-.139-.168-.815-1.737-.83-1.57-.016-2.926.307-3.078.722-.152.415-.32 1.4-.655 2.352-.32.953-4.129 9.502-5.12 11.731a47.78 47.78 0 0 1-1.264 2.66c-.32.615-.015.046-.045.108-.275.522-.427.814-.427.814v.016c-.213.384-.442.753-.548.753-.077 0-.23-1.03.03-2.444.564-2.968 1.935-7.596 1.92-7.765 0-.077.259-.891-.884-1.306-1.112-.415-1.508.276-1.6.276-.091 0-.167.246-.167.246s1.234-5.212-2.362-5.212c-2.255 0-5.363 2.476-6.902 4.736-.975.538-3.047 1.675-5.24 2.89-.839.461-1.707.953-2.53 1.4l-.168-.185c-4.357-4.69-12.417-8.01-12.081-14.314.121-2.29.914-8.333 15.48-15.651C33.307 2.73 42.86 4.376 44.52 8.035c2.362 5.227-5.104 14.944-17.506 16.343-4.723.538-7.206-1.307-7.83-1.999-.656-.722-.747-.753-.991-.615-.396.216-.152.861 0 1.246.366.968 1.889 2.69 4.48 3.551 2.27.753 7.815 1.169 14.519-1.445C44.703 22.179 50.57 14.03 48.848 7.22 47.096.286 35.7-1.99 24.928 1.87 18.514 4.175 11.566 7.772 6.569 12.492.627 18.09-.318 22.98.079 25.008 1.465 32.25 11.353 36.97 15.314 40.46c-.198.107-.38.215-.548.307-1.98.984-9.523 4.966-11.412 9.179-2.133 4.766.335 8.195 1.98 8.656 5.09 1.43 10.3-1.138 13.119-5.366 2.803-4.228 2.468-9.717 1.173-12.223l-.046-.092 1.554-.922A92.536 92.536 0 0 1 24 38.369c-.488 1.337-.838 2.921-1.021 5.227-.213 2.706.883 6.212 2.33 7.595.64.6 1.403.615 1.875.615 1.676 0 2.438-1.399 3.276-3.075 1.036-2.044 1.95-4.412 1.95-4.412s-1.143 6.411 1.98 6.411c1.143 0 2.286-1.491 2.804-2.26v.015s.03-.046.091-.153c.122-.185.183-.293.183-.293v-.03c.457-.8 1.478-2.63 3.001-5.658 1.966-3.905 3.855-8.794 3.855-8.794s.183 1.199.747 3.167c.335 1.168 1.066 2.444 1.63 3.69-.457.645-.732 1.014-.732 1.014l.016.016a43.64 43.64 0 0 1-1.204 1.537c-1.554 1.876-3.413 4.013-3.656 4.628-.29.723-.229 1.26.335 1.691.411.308 1.142.37 1.92.308 1.401-.092 2.376-.446 2.864-.661a9.89 9.89 0 0 0 2.468-1.307c1.523-1.138 2.453-2.752 2.361-4.905-.045-1.184-.426-2.352-.898-3.459.137-.2.274-.4.41-.615 2.408-3.552 4.267-7.457 4.267-7.457s.183 1.2.746 3.167c.29 1 .869 2.091 1.387 3.168-2.255 1.86-3.672 4.012-4.16 5.427-.898 2.614-.197 3.797 1.128 4.074.594.123 1.447-.154 2.087-.43a9.421 9.421 0 0 0 2.636-1.369c1.524-1.137 2.986-2.721 2.91-4.858-.046-.984-.305-1.953-.655-2.875 1.92-.8 4.403-1.26 7.557-.877 6.78.8 8.12 5.074 7.862 6.858-.26 1.783-1.676 2.767-2.149 3.075-.472.292-.624.4-.579.614.061.323.275.308.686.247.564-.093 3.565-1.461 3.687-4.751.183-4.228-3.794-8.84-10.848-8.794zM14.857 51.668c-2.24 2.475-5.393 3.413-6.734 2.614-1.447-.846-.884-4.49 1.874-7.119 1.676-1.599 3.855-3.075 5.287-3.982.32-.2.807-.492 1.386-.845.092-.062.153-.093.153-.093.106-.061.228-.138.35-.215 1.02 3.751.046 7.042-2.316 9.64zm16.379-11.239c-.777 1.922-2.423 6.857-3.413 6.58-.853-.23-1.371-3.966-.168-7.656.61-1.86 1.905-4.075 2.666-4.935 1.234-1.384 2.575-1.845 2.91-1.276.397.737-1.508 6.088-1.995 7.287zm13.514 6.519c-.336.169-.64.292-.777.2-.107-.062.137-.292.137-.292s1.69-1.83 2.361-2.675c.381-.492.838-1.061 1.326-1.707v.184c0 2.214-2.103 3.69-3.047 4.29zm10.42-2.398c-.243-.185-.212-.754.61-2.537.32-.708 1.052-1.891 2.316-3.014.153.461.244.907.229 1.322-.016 2.768-1.966 3.798-3.154 4.229z" fill="#CF649A"/></svg>