<svg width="494" height="495" fill="none" xmlns="http://www.w3.org/2000/svg"><g clip-path="url(#a)"><path d="M494 247.265a246.988 246.988 0 0 1-14.269 83.013v.006a246.241 246.241 0 0 1-28.337 55.843 228.978 228.978 0 0 1-6.342 8.91 246.319 246.319 0 0 1-14.709 17.913 238.975 238.975 0 0 1-9.117 9.58 247.29 247.29 0 0 1-23.398 20.556 199.017 199.017 0 0 1-4.377 3.307 242.146 242.146 0 0 1-10.501 7.341 244.956 244.956 0 0 1-24.389 14.19 241.927 241.927 0 0 1-21.744 9.744 187.466 187.466 0 0 1-5.08 1.921c-.288.111-.575.217-.869.317a245.208 245.208 0 0 1-62.812 13.731c-1.49.135-2.982.249-4.476.341-1.584.112-3.17.202-4.758.27-1.256.065-2.505.112-3.767.147-.258.012-.522.024-.78.024a260.658 260.658 0 0 1-7.275.111c-.34 0-.681 0-1.021-.006a248.692 248.692 0 0 1-14.656-.481c-.1-.006-.199-.018-.299-.018a252.398 252.398 0 0 1-5.192-.393 240.93 240.93 0 0 1-18.229-2.232 168.806 168.806 0 0 1-4.142-.705 238.587 238.587 0 0 1-17.701-3.824 245.473 245.473 0 0 1-72.363-31.604 237.434 237.434 0 0 1-10.502-7.165 63.108 63.108 0 0 1-1.256-.905 247.73 247.73 0 0 1-23.814-19.775 242.322 242.322 0 0 1-10.373-10.36C24.053 371.214-.094 310.428 0 247.265 0 110.705 110.587 0 247 0s247 110.705 247 247.265z" fill="#F2F2F2"/><path d="M277.133 63.036c4.946-8.188 10.806-16.93 19.984-19.604 10.628-3.096 21.546 3.055 30.807 9.124a897.958 897.958 0 0 1 79.891 58.926l-.028.318-59.616-4.115c-14.358-.991-29.208-2.119-41.897-8.919-4.814-2.58-9.508-6.026-14.963-6.266-6.779-.299-12.689 4.44-17.334 9.392-27.475 29.288-35.425 74.077-66.249 99.809a979.571 979.571 0 0 1 69.405-138.665z" fill="#fff"/><path d="M108.249 311.455c3.038-3.84 4.28-4.74 7.277-8.616a1318.426 1318.426 0 0 0 68.809-97.987 1305.912 1305.912 0 0 0 41.581-70.043 1292.968 1292.968 0 0 0 18.249-34.193 1302.781 1302.781 0 0 0 13.454-26.878 539.296 539.296 0 0 0 3.683-7.753c2.856-6.095 5.658-12.22 8.666-18.232 3.429-6.853 7.603-14.037 13.898-18.641a18.955 18.955 0 0 1 9.878-3.805c5.126-.332 9.855 1.787 14.3 4.1 32.525 16.979 62.975 38.265 90.516 62.486a471.546 471.546 0 0 1 73.539 81.719c.65.929 2.187.042 1.531-.893a465.962 465.962 0 0 0-7.904-10.853 472.843 472.843 0 0 0-76.583-80.335 475.494 475.494 0 0 0-44.389-32.624 467.012 467.012 0 0 0-23.977-14.552c-4.102-2.326-8.222-4.622-12.414-6.776-4.108-2.113-8.471-4.012-13.164-4.083-15.973-.249-24.243 17.86-29.924 30.044a1073.857 1073.857 0 0 1-5.421 11.469 1298.757 1298.757 0 0 1-21.529 43.011 1302.686 1302.686 0 0 1-14.082 26.156 1313.758 1313.758 0 0 1-47.575 79.334c-22.251 34.306-44.324 64.611-69.672 96.691-.698.888.549 2.154 1.253 1.254z" fill="#fff"/><path d="m196.653 167.457-23.798-8.714-11.815-4.326c-3.849-1.409-7.687-3.013-11.666-4.022-3.517-.892-7.09-1.038-10.558.135a24.32 24.32 0 0 0-8.235 5.11 66.949 66.949 0 0 0-6.755 7.221c-2.572 3.095-5.107 6.222-7.652 9.339a4652.743 4652.743 0 0 0-62.217 77.85 4650.957 4650.957 0 0 0-34.27 44.38c-.683.896-2.224.012-1.53-.896a4667.594 4667.594 0 0 1 101.746-128.678c2.243-2.738 4.461-5.505 6.922-8.053 4.517-4.677 10.161-8.81 16.917-8.922 3.972-.066 7.816 1.196 11.506 2.532 3.979 1.441 7.948 2.909 11.921 4.364l23.964 8.774 5.991 2.194c1.063.389.604 2.105-.471 1.711v.001z" fill="#fff"/><path d="M131.477 167.543c2.342-2.854 4.875-5.843 8.379-7.002l3.271.129a371.34 371.34 0 0 1-98.833 113.11l87.183-106.237z" fill="#fff"/><path d="M277.939 149.851c8.995-9.005 8.995-23.605 0-32.61-8.996-9.005-23.58-9.005-32.575 0-8.996 9.005-8.996 23.605 0 32.61 8.995 9.005 23.579 9.005 32.575 0z" fill="#9E616A"/><path d="m240.308 251.378-15.911 108.76 86.849-6.553-25.995-106.994-44.943 4.787z" fill="#FFB8B8"/><path d="M331.162 478.796c-.078.375-.176.745-.294 1.11a243.207 243.207 0 0 1-30.684 8.874c-2.194-7.224-6.401-20.903-10.085-32.091-3.01-9.133-5.668-16.604-6.595-17.538-2.575-2.567 0-5.991 0-5.991l-11-34.235-4.999-15.552-1.713 32.673-2.488 47.327-.07 1.327s-3.427 10.272-1.713 11.987c1.713 1.715-1.714 8.569-1.714 8.569l-.985 8.992c-1.256.065-2.505.112-3.767.147l-.428.135-.352-.111c-1.696.053-3.397.086-5.104.1-.722.005-1.444.011-2.171.011-.341 0-.681 0-1.021-.006a248.692 248.692 0 0 1-14.656-.481l-3.01-24.521-3.109-25.337s3.42-6.843 0-10.267c-2.059-2.061-1.027-5.057.129-7.113-.716-3.177-1.696-8.064-3.016-15.299-.047-.241-.088-.488-.135-.735-.416-2.296-.79-4.547-1.12-6.754a217.445 217.445 0 0 1-1.397-11.183 196.585 196.585 0 0 1-.492-34.811c.328-4.123.739-7.141 1.009-8.886.023-.164.276-1.086.686-2.543.646-2.332 1.708-6.032 2.899-10.172.633-2.197 1.302-4.517 1.965-6.825 1.156-4 2.306-7.964 3.233-11.171v-.018c.815-2.813 1.466-5.033 1.807-6.196l.252-.881.528-.118c1.074-.246 3.726-.839 7.398-1.632a793.526 793.526 0 0 1 14.187-2.884c4.64-.893 9.639-1.803 14.608-2.62 1.784-.287 3.568-.569 5.328-.834 10.871-1.621 20.851-2.543 25.58-1.491.327.069.65.158.968.264a4.8 4.8 0 0 1 .921.417c.147.088 1.566 5.632 3.379 12.857l.053.217c.546 2.185 1.127 4.511 1.719 6.889.604 2.426 1.215 4.899 1.813 7.307 1.778 7.153 3.42 13.772 4.265 17.014.323 1.257.534 2.003.581 2.085 1.983 3.307 3.602 11.412 4.917 21.579 1.173 9.074 2.106 19.793 2.828 30.206.357 5.151.662 10.231.921 15.001.874 16.045 1.226 28.573 1.226 28.573s1.308 10.443 3.907 15.37a7.48 7.48 0 0 0 1.215 1.745c1.73 1.732 1.93 3.236 1.701 4.305a3.56 3.56 0 0 1-.61 1.398 2.353 2.353 0 0 1-.229.288 6.674 6.674 0 0 0 1.713 5.99c1.661 1.674 1.526 4.07 1.221 5.539z" fill="#2F2E41"/><path d="M302.713 216.495c-.1-.74-.206-1.486-.317-2.238-.065-.481-.141-.963-.211-1.439-.745-4.804 2.358-8.915-1.661-12.24a8.547 8.547 0 0 1-2.247-2.807l-.921-1.856-1.695-3.442-3.708-7.482-.64-1.286a8.235 8.235 0 0 0-.622-1.052 8.476 8.476 0 0 0-2.646-2.478l-9.211-5.498a8.506 8.506 0 0 1-3.297-3.576l-.229-.47c-1.015-2.085-2.834-7.072-4.987-9.239l-.006-.006a3.158 3.158 0 0 0-1.807-1.028l-9.17-.91a8.5 8.5 0 0 0-7.691 3.401l-.253 1.145-1.472 6.713-.082.018c-.435.099-.869.199-1.297.323-9.51 2.602-13.477 35.885-13.477 35.885s-1.181 12.144-1.181 17.391c0 5.248.459 7.096 1.809 11.394.032.101.064.17.082.259a8.454 8.454 0 0 1 .435 3.729l.005.429.012.946.035 2.425.112 8.047.141 10.072.123 8.581.041 2.285-7.692 33.507a8.435 8.435 0 0 0 1.778 6.208l.006.006a7.8 7.8 0 0 0 .54.623l.005.005c.182.188.37.359.564.529a8.435 8.435 0 0 0 6.841 1.991l1.026-.159h.006l14.902-2.237h.012l1.725-.259h.012l16.68-2.508h.011l2.857-.434c.229-.03.452-.059.681-.077l15.272-1.051c.35-.024.699-.069 1.044-.135h.006a8.543 8.543 0 0 0 6.143-4.916c.23-.502.406-1.028.522-1.568a8.886 8.886 0 0 0 .217-1.78l.17-14.401.581-46.54a8.385 8.385 0 0 1 1.279-4.387c2.118-3.383 1.877-10.631.845-18.413z" fill="#CA0000"/><path d="M277.108 340.793a8.257 8.257 0 0 1 4.603-8.938 8.234 8.234 0 0 1 3.485-.784l9.528-27.727 9.289 12.07-10.472 24.48a8.292 8.292 0 0 1-7.817 7.757 8.28 8.28 0 0 1-5.61-1.79 8.294 8.294 0 0 1-3.006-5.068z" fill="#9E616A"/><path d="m313.461 282.458-2.141 5.403-2.992 33.425a9.424 9.424 0 0 0-2.635 1.11 9.25 9.25 0 0 0-3.833 4.729 9.266 9.266 0 0 0-.068 6.089l.88 2.643-6.542-2.014-10.754-3.307-12.679-3.9 2.148-6.971a10.35 10.35 0 0 0-2.576-10.402l.804-6.02.475-3.577-5.802 4.411-11.347 8.628h-.006l-1.502 1.145s-.082-.305-.235-.887a274.877 274.877 0 0 1-1.519-6.266 381.041 381.041 0 0 1-7.563-45.277c-.352-3.43-.657-6.943-.903-10.508-.252-3.671-.44-7.394-.54-11.141-.845-30.5 3.837-62.474 23.404-78.826a9.315 9.315 0 0 1 2.786.447c7.921 2.437 16.61 14.348 22.618 22.87 1.419 2.015 2.687 3.835 3.76 5.298l2.599 3.542a41.466 41.466 0 0 1 7.199 16.274c.252 1.246.45 2.506.593 3.783l2.839 26.148v6.736l3.532 36.415z" fill="#CA0000"/><path d="M14.31 329.331a169.627 169.627 0 0 0 16.498 17.003l432.736.588a169.484 169.484 0 0 0 16.498-17.004l-465.732-.587z" fill="#CCC"/><path d="M249.171 494.518c-.722.006-1.443.012-2.171.012-.34 0-.68 0-1.021-.006a248.658 248.658 0 0 1-14.655-.481l.117.957-.417-.975-9.299-21.672 6.589-2.831 12.086-5.198 3.667 12.621 3.508 12.088 1.044 3.582.552 1.903zM206.089 469.357l-2.628 21.338a239.093 239.093 0 0 1-17.701-3.823v-17.509l20.329-.006z" fill="#FFB6B6"/><path d="M113.397 430.03v25.237a237.434 237.434 0 0 1-10.502-7.165V430.03h10.502z" fill="#CACACA"/><path d="M154.085 425.824v12.61a8.774 8.774 0 0 1-2.563 6.194 8.75 8.75 0 0 1-6.185 2.569H101.64a247.63 247.63 0 0 1-23.814-19.775 242.266 242.266 0 0 1-10.373-10.36h77.884a8.753 8.753 0 0 1 6.184 2.57 8.776 8.776 0 0 1 2.564 6.192z" fill="#3F3D56"/><path d="m256.493 493.937-1.437.458-.429.135-.352-.112c-1.695.053-3.397.087-5.104.1-.722.006-1.443.012-2.171.012-.34 0-.68 0-1.021-.006a248.658 248.658 0 0 1-14.655-.481l.117.957-.417-.975a246.06 246.06 0 0 1-5.192-.394l-13.652-22.888-28.097-47.098-3.257-5.456s-11.106 3.289-26.823 6.443c-11.846 2.385-26.308 4.681-40.606 5.433-3.526.188-7.04.282-10.502.253-8.947-.059-17.542-.899-25.07-2.896a242.206 242.206 0 0 1-10.372-10.36 247.346 247.346 0 0 1-16.205-18.989 45.86 45.86 0 0 1 .37-7.247c.053-.4.105-.805.17-1.216l1.602-27.229 11.898-1.574 18.106-2.396 19.613-2.596 2.159 16.927s15.272-.776 34.621-.517c31.077.423 72.663 3.524 78.295 16.833.528 1.251 1.056 2.513 1.584 3.776 10.936 26.224 20.98 54.164 27.804 74.015a1508.35 1508.35 0 0 1 3.531 10.39c3.468 10.319 5.492 16.698 5.492 16.698z" fill="#2F2E41"/><path d="M223.227 404.064c-.287 2.49-.59 4.971-.909 7.442-2.816 21.854-6.694 42.728-10.138 59.237a876.856 876.856 0 0 1-4.577 20.657 164.936 164.936 0 0 1-4.142-.705 238.67 238.67 0 0 1-17.7-3.824c-1.731-.44-3.452-.9-5.163-1.38l3.485-61.845 1.15-20.457 35.829.828 2.165.047z" fill="#2F2E41"/><path d="M280.838 308.406a11.686 11.686 0 0 1 9.878-.719 11.716 11.716 0 0 1 6.893 7.121l41.599.049-11.922 18.052-37.675-2.815c-2.78.76-5.741.473-8.323-.807a11.777 11.777 0 0 1-5.687-6.136 11.797 11.797 0 0 1-.18-8.369 11.776 11.776 0 0 1 5.417-6.376z" fill="#FFB6B6"/><path d="m303.517 332.817 74.92 7.451.197-.253c.378-.484 37.881-48.54 44.182-59.98a34.62 34.62 0 0 0 4.001-22.654l-.043-.19-.149-.127a17.52 17.52 0 0 0-21.924-.481 124.303 124.303 0 0 0-35.841 44.334l-4.74 9.879-54.98 2.361-5.623 19.66z" fill="#CA0000"/><path d="m274.622 468.241-11.042 25.737c-1.584.111-3.17.202-4.758.27-1.256.065-2.505.112-3.767.147l-.428.135-.352-.112a260.658 260.658 0 0 1-7.275.112c-.34 0-.681 0-1.021-.006l.733-2.514.863-2.977 3.426-11.794 4.946-17.027 7.357 3.16 11.318 4.869zM354.184 470.097a242.099 242.099 0 0 1-17.366 7.571l-5.774-9.72 18.61-8.182 4.53 10.331z" fill="#FFB6B6"/><path d="M393.452 425.918v20.475a242.793 242.793 0 0 1-10.502 7.341v-27.816h10.502z" fill="#CACACA"/><path d="M430.343 412.95a239.652 239.652 0 0 1-9.117 9.58 247.29 247.29 0 0 1-23.398 20.556H351.01a8.717 8.717 0 0 1-6.565-2.978l-.006-.017a8.653 8.653 0 0 1-1.971-3.877l-.006-.012a8.984 8.984 0 0 1-.2-1.879v-12.61a8.774 8.774 0 0 1 2.564-6.192 8.754 8.754 0 0 1 6.184-2.571h79.333z" fill="#3F3D56"/><path d="m449.634 363.732-5.075 21.767c.496 3.153.661 6.35.493 9.538a243.7 243.7 0 0 1-7.445 9.497 247.467 247.467 0 0 1-7.264 8.416 238.975 238.975 0 0 1-9.117 9.58c-8.143 2.561-17.742 3.606-27.774 3.676-3.462.03-6.976-.064-10.502-.252-14.298-.752-28.76-3.048-40.606-5.433a326.602 326.602 0 0 1-8.788-1.873 353.903 353.903 0 0 1-12.538-3.06 192.729 192.729 0 0 1-5.498-1.51l-13.323 22.336-12.098 20.275-22.042 36.949c-1.491.135-2.983.248-4.477.34-1.584.112-3.17.202-4.758.27-1.256.065-2.505.112-3.767.147l-.428.135-.352-.111-5.656-1.803-1.906-.605-6.859-2.185s1.531-4.828 4.212-12.88c.986-2.955 2.124-6.349 3.403-10.096 4.618-13.544 11.019-31.734 18.323-50.804a1007.135 1007.135 0 0 1 6.712-17.121 884.144 884.144 0 0 1 5.761-13.978c3.385-7.994 19.743-12.305 39.004-14.566.98-.112 1.965-.223 2.957-.329 9.815-1.034 20.229-1.568 29.968-1.815a586.342 586.342 0 0 1 18.082-.164h.006c3.608.017 6.929.07 9.851.129.569.012 1.121.029 1.66.041h.006c.364.006.722.018 1.074.024 6.389.164 10.308.364 10.308.364l1.52-11.935.311-2.408.293-2.29v-.006l.035-.288.241-.006 4.224-.082 35.507-.693 19.396-.382-3.074 13.191z" fill="#2F2E41"/><path d="M358.561 467.924a241.903 241.903 0 0 1-21.743 9.744 188.783 188.783 0 0 1-5.081 1.92 74.893 74.893 0 0 0-.575-.793c-8.143-11.188-18.493-25.954-28.965-42.381a646.429 646.429 0 0 1-13.066-21.355l30.966-14.472 3.473-1.621 9.986 19.681 8.906 17.555 1.983 3.906 14.116 27.816z" fill="#2F2E41"/><path d="M403.509 223.215c15.756 0 28.528-12.786 28.528-28.559 0-15.773-12.772-28.559-28.528-28.559-15.756 0-28.529 12.786-28.529 28.559 0 15.773 12.773 28.559 28.529 28.559z" fill="#FFB6B6"/><path d="M402.565 221.975c6.67 3.204 14.88 2.119 21.248-1.651 6.368-3.769 11.054-9.916 14.329-16.557 2.399-4.864 4.141-10.433 2.752-15.676-1.389-5.243-6.93-9.635-12.121-8.083 3.556-2.866 3.142-8.779.268-12.331-2.874-3.552-7.408-5.26-11.79-6.547-6.358-1.869-13.04-3.188-19.597-2.232-6.558.956-13.015 4.51-16.1 10.381a9.988 9.988 0 0 1-11.232-4.829 9.073 9.073 0 0 0 3.114 10.578l-8.882-4.824c-2.264 3.142-.207 7.933 3.231 9.713 3.437 1.78 7.592 1.305 11.343.354 3.751-.951-.675 6.98 3.194 7.056 3.869.077 8.055 2.104 9.163 5.815.58 1.945.242 4.032.413 6.054.171 2.022 1.139 4.265 3.096 4.792 1.237.332 2.59-.109 3.816.261 1.52.458 2.447 2.086 2.58 3.669.134 1.584-.362 3.146-.852 4.657-1.936 5.974 4.277 2.626 2.341 8.6l-.314.8z" fill="#2F2E41"/><path d="M458.54 306.333c-.235-23.587-1.302-39.662-3.168-47.785-5.011-21.837-28.156-25.819-31.782-26.312a7.997 7.997 0 0 0-10.824-4.47l-16.445 7.541a26.8 26.8 0 0 0-14.24 15.917l-2.44 7.459-1.226 50.058 4.048 21.056.006.011 2.728 14.184-1.878 2.82-10.719 16.092-.181.282-.006.006-.47.699c.652.358 1.297.711 1.931 1.063 1.642.905 3.244 1.791 4.805 2.661.375.211.745.417 1.114.628h.006a1098.996 1098.996 0 0 1 18.669 10.654c22.177 12.986 33.418 20.938 39.139 25.637a243.7 243.7 0 0 0 7.445-9.497 234.632 234.632 0 0 0 6.342-8.91c.358-2.361.598-4.722.833-7.036.282-2.784.575-5.668 1.068-8.504.217-1.257-.616-2.45-1.42-3.601-.745-1.075-1.449-2.085-1.302-3.036.152-.981 1.232-2.05 2.282-3.09 1.144-1.139 2.329-2.314 2.499-3.553.47-3.453.886-6.919 1.25-10.396a348.516 348.516 0 0 0 1.379-17.02c.451-7.859.637-15.711.557-23.558z" fill="#CA0000"/><path d="M349.944 389.592a11.712 11.712 0 0 1 11.535-8.403c1.711.045 3.391.464 4.922 1.23l29.754-29.103 4.099 21.248-28.883 24.378a11.771 11.771 0 0 1-6.51 5.253 11.756 11.756 0 0 1-8.352-.4 11.773 11.773 0 0 1-5.978-5.853 11.794 11.794 0 0 1-.587-8.35z" fill="#FFB6B6"/><path d="m383.21 391.147 58.733-47.154-.036-.319c-.068-.61-6.863-61.212-10.357-73.799a34.583 34.583 0 0 0-12.976-18.987l-.163-.106-.195.014a17.526 17.526 0 0 0-10.634 4.693 17.556 17.556 0 0 0-5.366 10.32 124.452 124.452 0 0 0 5.381 56.778l3.518 10.378-37.629 40.198 9.724 17.984z" fill="#CA0000"/><path d="M82.44 222.702c14.058 0 25.455-11.409 25.455-25.483s-11.397-25.483-25.456-25.483-25.456 11.409-25.456 25.483 11.397 25.483 25.456 25.483z" fill="#A0616A"/><path d="m48.24 391.315-.14-.195c-7.415-10.392 3.738-35.366 5.42-38.986a9.08 9.08 0 0 1-4.842-3.741 9.096 9.096 0 0 1-1.373-5.966l.725-6.171.756-6.052-5.415-5.421-.015-.135-3.116-27.296-4.53-18.129a39.843 39.843 0 0 1 .42-20.817 39.81 39.81 0 0 1 10.864-17.756l10.473-1.665 12.728-12.277H90.72l7.038 6.732c13.836 11.353 17.121 6.421 32.723 27.794l-11.171 29.463 6.244 43.455.003 7.865 3.253 3.618a11.28 11.28 0 0 1 2.486 4.553 11.28 11.28 0 0 1 .182 5.186l-.428 2.141a11.252 11.252 0 0 1 6.567 7.989l1.142 5.336c.978 1.291 7.428 9.901 7.428 12.255 0 .353-.261.695-.82 1.074-4.396 2.979-28.692 9.054-39.445 4.747-11.455-4.585-56.987 2.293-57.446 2.363l-.237.036z" fill="#3F3D56"/><path d="m35.307 287.943 21.166-4.148c7.827 11.702 12.03 43.701 12.03 43.701l23.4 48.584a9.523 9.523 0 0 1 3.424 3.595 9.544 9.544 0 0 1-.282 9.587 9.525 9.525 0 0 1-8.467 4.49 9.523 9.523 0 0 1-8.08-5.153 9.543 9.543 0 0 1-1.048-4.855l-30.522-57.563-11.621-38.238z" fill="#A0616A"/><path d="m35.188 292.97-.602-31.492 9.961-13.34a17.502 17.502 0 0 1 17.237-6.679 17.467 17.467 0 0 1 10.798 6.916 17.502 17.502 0 0 1 3.175 12.433c-1.69 13.336-5.529 30.024-14.212 33.799l-.088.038 9 31.51-33.376 4.667-1.893-37.852z" fill="#3F3D56"/><path d="M160.896 290.187s-25.401-19.875-39.177-22.73l-12.194 17.809 32.977 20.231 64.203 18.583a9.513 9.513 0 0 0 13.505.654 9.546 9.546 0 0 0 .545-13.524 9.517 9.517 0 0 0-9.153-2.788l-50.706-18.235z" fill="#A0616A"/><path d="m116.207 294.182-26.471-17.027-5.528-15.709a17.547 17.547 0 0 1 4.05-18.052 17.461 17.461 0 0 1 11.75-5.133 17.46 17.46 0 0 1 12.086 4.279c10.126 8.828 23.176 11.787 21.476 21.11l4.876.713 24.93 18.954-14.702 30.357-32.467-19.492z" fill="#3F3D56"/><path d="M53.565 180.475c2.859-4.427 8.223-7.377 13.423-6.548a18.364 18.364 0 0 1 4.005-9.037 18.327 18.327 0 0 1 17.962-6.259c3.28.701 6.305 2.29 8.745 4.593 1.53-1.219 3.756-1.284 5.574-.558a11.754 11.754 0 0 1 4.528 3.638 26.42 26.42 0 0 1 3.691 26.862c.635-2.312-1.68-4.488-4.019-5.007-2.34-.519-4.793-.028-7.166-.366-3.04-.433-5.773-2.199-8.819-2.596-2.559-.334-5.133.323-7.628.981-2.496.659-5.063 1.33-7.626 1.025-2.563-.304-5.865 9.419-5.82 16.268.008 1.298-.259 2.964-1.526 3.239-1.56.34-2.465-1.816-3.95-2.404-1.323-.523-2.909.447-3.37 1.794a4.491 4.491 0 0 0 .855 4.016 13.24 13.24 0 0 0 3.21 2.787l-.612.509c-1.017 1.346-3.128 1.404-4.594.572-1.466-.833-2.43-2.314-3.299-3.76-2.713-4.518-5.093-9.331-6.05-14.514-.958-5.183-.372-10.808 2.486-15.235zM287.936 118.89c-2.382-3.644-6.853-6.073-11.186-5.391a15.02 15.02 0 0 0-3.338-7.438 15.266 15.266 0 0 0-6.756-4.647 15.43 15.43 0 0 0-8.214-.506 15.325 15.325 0 0 0-7.287 3.781c-1.276-1.004-3.131-1.057-4.645-.46a9.778 9.778 0 0 0-3.774 2.996 21.612 21.612 0 0 0-4.628 10.636 21.524 21.524 0 0 0 1.552 11.477c-.53-1.904 1.4-3.695 3.349-4.123 1.95-.427 3.995-.023 5.972-.301 2.534-.356 4.812-1.81 7.349-2.137 2.133-.275 4.278.266 6.358.808s4.22 1.095 6.355.844c2.137-.251 4.888 7.753 4.851 13.391-.007 1.069.216 2.441 1.271 2.667 1.301.279 2.054-1.495 3.292-1.979 1.103-.431 2.425.368 2.809 1.477a3.65 3.65 0 0 1 .048 1.738 3.68 3.68 0 0 1-.761 1.568 10.99 10.99 0 0 1-2.675 2.294l.51.419c.848 1.108 2.607 1.156 3.829.47 1.222-.685 2.025-1.904 2.749-3.095 2.261-3.719 4.244-7.681 5.042-11.948.798-4.266.31-8.897-2.072-12.541z" fill="#2F2E41"/><path opacity=".2" d="M277.118 223.3a129.611 129.611 0 0 1 3.545 32.898 131.543 131.543 0 0 1-4.815 32.744 127.916 127.916 0 0 1-6.341 17.631c-.457 1.026 1.059 1.924 1.52.889a131.38 131.38 0 0 0 9.653-32.266 133.479 133.479 0 0 0 1.22-33.674 130.982 130.982 0 0 0-3.085-18.69c-.265-1.102-1.962-.636-1.697.468zM441.448 298.657l-14.713 35.955c-2.368 5.787-4.666 11.609-7.13 17.355-2.219 5.174-4.749 10.37-8.484 14.635-3.769 4.306-8.84 7.8-14.633 8.483-1.111.132-1.124 1.895 0 1.762 5.292-.623 10.035-3.257 13.865-6.899 4.142-3.938 7.06-8.954 9.443-14.102 2.656-5.738 4.915-11.671 7.309-17.521l7.522-18.383 8.518-20.816c.429-1.049-1.273-1.505-1.697-.469z" fill="#000"/><path d="M267.042 331.293a3.763 3.763 0 0 0 3.627 2.543l15.543-.4a3.716 3.716 0 0 0 3.509-2.735l2.199-23.545c.781.354 1.63.529 2.487.512a5.67 5.67 0 0 0 5.038-7.975 5.687 5.687 0 0 0-1.274-1.81 5.658 5.658 0 0 0-4.049-1.56 4.769 4.769 0 0 0-1.018.106 3.84 3.84 0 0 0-2.86-1.235l-23.908.618a3.34 3.34 0 0 0-.59.073 3.734 3.734 0 0 0-2.859 4.854l4.155 30.554zm25.329-25.735 1.566-5.611a3.817 3.817 0 0 0 .011-1.982c.076 0 .143-.036.219-.036a4.052 4.052 0 0 1 4.137 3.963 4.058 4.058 0 0 1-3.947 4.152 3.81 3.81 0 0 1-1.986-.486z" fill="#2F2E41"/><path d="M265.746 295.885c.509 2.916 6.236 4.965 13.122 4.609 6.332-.292 11.51-2.518 12.458-5.156a3.536 3.536 0 0 0-1.082-.144l-23.908.618a3.448 3.448 0 0 0-.59.073z" fill="#3F3D56"/><path d="M215.272 299.564a3.75 3.75 0 0 0-.326-3.078 3.743 3.743 0 0 0-2.533-1.776 3.436 3.436 0 0 0-.589-.073l-23.909-.618a3.844 3.844 0 0 0-2.859 1.235 4.785 4.785 0 0 0-1.019-.106 5.676 5.676 0 0 0-.284 11.345 5.755 5.755 0 0 0 2.486-.511l2.199 23.544a3.719 3.719 0 0 0 3.509 2.735l15.543.401a3.764 3.764 0 0 0 3.628-2.544l4.154-30.554zm-31.47 5.305a4.053 4.053 0 0 1-3.947-4.152 4.053 4.053 0 0 1 4.137-3.963c.076 0 .143.036.219.036a3.828 3.828 0 0 0 .012 1.982l1.565 5.611a3.81 3.81 0 0 1-1.986.486z" fill="#2F2E41"/><path d="M212.413 294.71c-.509 2.916-6.236 4.966-13.122 4.609-6.332-.292-11.509-2.518-12.458-5.156a3.536 3.536 0 0 1 1.082-.144l23.908.618c.199.007.396.032.59.073z" fill="#3F3D56"/><path d="M189.755 243.565a10.134 10.134 0 0 1 8.425-1.657 10.142 10.142 0 0 1 6.678 5.401l35.796-4.335-8.362 16.786-32.711 1.543a10.19 10.19 0 0 1-12.783-4.5 10.221 10.221 0 0 1 2.957-13.238z" fill="#9E616A"/><path d="M306.497 209.376a268.784 268.784 0 0 1-3.784 7.119c-5.069 9.274-12.033 21.243-17.396 30.353-4.582 7.77-8.002 13.467-8.096 13.626l-.147.235-31.499.71-6.759.153-2.3.053-24.683.558.235-1.468 2.306-14.554.235-1.486 21.619-3.595 7.903-1.309 17.531-2.914 3.045-8.997a107.77 107.77 0 0 1 26.178-41.918c.346-.335.698-.652 1.068-.951.323-.259.651-.506.986-.729 1.419 2.015 2.687 3.835 3.76 5.298l2.599 3.542a41.466 41.466 0 0 1 7.199 16.274z" fill="#CA0000"/><path d="M175.517 263.163a3.77 3.77 0 0 0 3.627 2.543l15.543-.4a3.713 3.713 0 0 0 3.509-2.735l2.199-23.544a5.76 5.76 0 0 0 2.487.511 5.668 5.668 0 0 0 5.524-5.815 5.68 5.68 0 0 0-1.76-3.969 5.66 5.66 0 0 0-4.049-1.561 4.775 4.775 0 0 0-1.018.106 3.825 3.825 0 0 0-2.86-1.235l-23.908.618a3.448 3.448 0 0 0-.59.073 3.74 3.74 0 0 0-2.532 1.776 3.752 3.752 0 0 0-.327 3.078l4.155 30.554zm25.33-25.735 1.565-5.611a3.828 3.828 0 0 0 .012-1.982c.075 0 .143-.036.218-.036a4.05 4.05 0 0 1 2.887 1.125 4.064 4.064 0 0 1 .134 5.731 4.053 4.053 0 0 1-2.831 1.259 3.807 3.807 0 0 1-1.985-.486z" fill="#CCC"/><path d="M174.221 227.755c.51 2.915 6.236 4.965 13.122 4.609 6.332-.292 11.51-2.518 12.458-5.156a3.537 3.537 0 0 0-1.082-.145l-23.908.618a3.45 3.45 0 0 0-.59.074z" fill="#3F3D56"/></g><defs><clipPath id="a"><path fill="#fff" d="M0 0h494v495H0z"/></clipPath></defs></svg>