<svg width="494" height="495" viewBox="0 0 494 495" fill="none" xmlns="http://www.w3.org/2000/svg">
<g clip-path="url(#clip0_322_4263)">
<path d="M494 247.265C494.032 275.422 489.25 303.378 479.86 329.92C479.819 330.043 479.778 330.155 479.731 330.278V330.284C472.699 350.03 463.177 368.797 451.394 386.127C449.352 389.146 447.238 392.116 445.052 395.037C442.646 398.267 440.164 401.433 437.606 404.534C435.248 407.394 432.827 410.2 430.343 412.95C427.392 416.228 424.353 419.421 421.226 422.53C413.866 429.867 406.051 436.733 397.828 443.086C396.385 444.208 394.926 445.31 393.451 446.393C390.019 448.93 386.519 451.377 382.95 453.734C375.099 458.929 366.956 463.667 358.561 467.924C357.111 468.664 355.65 469.393 354.184 470.097C348.51 472.84 342.722 475.364 336.817 477.668C335.134 478.332 333.444 478.972 331.737 479.589C331.449 479.7 331.162 479.806 330.868 479.906C310.623 487.22 289.505 491.837 268.056 493.637C266.566 493.772 265.074 493.886 263.58 493.978C261.996 494.09 260.41 494.18 258.822 494.248C257.566 494.313 256.317 494.36 255.055 494.395C254.797 494.407 254.533 494.419 254.275 494.419C252.579 494.471 250.878 494.505 249.171 494.518C248.449 494.524 247.727 494.53 247 494.53C246.66 494.53 246.319 494.53 245.979 494.524C241.057 494.507 236.171 494.346 231.323 494.043C231.223 494.037 231.124 494.025 231.024 494.025C229.287 493.908 227.557 493.784 225.832 493.632C219.689 493.115 213.613 492.371 207.603 491.4C206.218 491.182 204.838 490.947 203.461 490.695C197.482 489.638 191.582 488.363 185.76 486.871C184.029 486.431 182.308 485.971 180.597 485.491C156.807 478.856 134.152 468.667 113.397 455.267C109.83 452.971 106.329 450.582 102.895 448.102C102.473 447.808 102.056 447.503 101.639 447.197C93.2974 441.109 85.3439 434.504 77.8253 427.422C74.2641 424.074 70.8065 420.621 67.4525 417.062C24.0529 371.214 -0.0946175 310.428 -0.000212514 247.265C-0.000212514 110.705 110.587 0 247 0C383.413 0 494 110.705 494 247.265Z" fill="#F2F2F2"/>
<path d="M277.133 63.0365C282.079 54.8483 287.939 46.1058 297.117 43.4321C307.745 40.3358 318.663 46.4867 327.924 52.5563C355.619 70.7088 382.29 90.3809 407.815 111.482L407.787 111.8C387.915 110.428 368.043 109.057 348.171 107.685C333.813 106.694 318.963 105.566 306.274 98.7663C301.46 96.1862 296.766 92.7397 291.311 92.4996C284.532 92.2012 278.622 96.9404 273.977 101.892C246.502 131.18 238.552 175.969 207.728 201.701C227.164 153.715 250.372 107.348 277.133 63.0365Z" fill="white"/>
<path d="M108.249 311.455C111.287 307.615 112.529 306.715 115.526 302.839C139.928 271.244 162.865 238.582 184.335 204.852C198.919 181.945 212.779 158.597 225.916 134.809C232.171 123.5 238.254 112.103 244.165 100.616C248.752 91.7101 253.237 82.7506 257.619 73.7378C258.873 71.1635 260.09 68.5774 261.302 65.9854C264.158 59.8901 266.96 53.7652 269.968 47.7527C273.397 40.8999 277.571 33.7157 283.866 29.1117C286.732 26.9304 290.158 25.6106 293.744 25.3065C298.87 24.9751 303.599 27.0937 308.044 29.4076C340.569 46.3857 371.019 67.672 398.56 91.8935C426.172 116.169 450.853 143.595 472.099 173.612C472.749 174.541 474.286 173.654 473.63 172.719C471.046 169.062 468.412 165.444 465.726 161.866C443.437 132.171 417.733 105.207 389.143 81.5315C374.989 69.8075 360.168 58.9143 344.754 48.9067C336.91 43.8174 328.917 38.9668 320.777 34.3548C316.675 32.0291 312.555 29.733 308.363 27.579C304.255 25.4663 299.892 23.5667 295.199 23.4957C279.226 23.2472 270.956 41.3556 265.275 53.5403C263.49 57.3751 261.683 61.198 259.854 65.009C252.944 79.478 245.767 93.8148 238.325 108.02C233.731 116.79 229.038 125.509 224.243 134.176C209.323 161.167 193.465 187.612 176.668 213.51C154.417 247.816 132.344 278.121 106.996 310.201C106.298 311.089 107.545 312.355 108.249 311.455Z" fill="white"/>
<path d="M196.653 167.457L172.855 158.743L161.04 154.417C157.191 153.008 153.353 151.404 149.374 150.395C145.857 149.503 142.284 149.357 138.816 150.53C135.757 151.663 132.956 153.401 130.581 155.64C128.154 157.877 125.897 160.291 123.826 162.861C121.254 165.956 118.719 169.083 116.174 172.2C105.666 185.064 95.2279 197.983 84.8581 210.959C74.4886 223.934 64.1884 236.964 53.9575 250.05C43.7017 263.167 33.5163 276.339 23.4015 289.566C22.1624 291.187 20.9244 292.808 19.6874 294.43C19.004 295.326 17.4631 294.442 18.1562 293.534C28.3456 280.174 38.606 266.868 48.9375 253.618C59.2944 240.335 69.7229 227.109 80.2229 213.939C90.7227 200.77 101.293 187.658 111.935 174.602C114.586 171.35 117.242 168.101 119.902 164.856C122.146 162.118 124.364 159.351 126.825 156.803C131.342 152.126 136.986 147.993 143.742 147.881C147.714 147.815 151.558 149.077 155.248 150.413C159.227 151.854 163.196 153.322 167.169 154.777L191.133 163.551L197.124 165.745C198.187 166.134 197.728 167.85 196.653 167.456V167.457Z" fill="white"/>
<path d="M131.477 167.543C133.819 164.689 136.352 161.7 139.856 160.541L143.127 160.67C118.225 204.72 84.5925 243.211 44.2944 273.78C73.3552 238.368 102.416 202.956 131.477 167.543Z" fill="white"/>
<path d="M277.939 149.851C286.934 140.846 286.934 126.246 277.939 117.241C268.943 108.236 254.359 108.236 245.364 117.241C236.368 126.246 236.368 140.846 245.364 149.851C254.359 158.856 268.943 158.856 277.939 149.851Z" fill="#9E616A"/>
<path d="M240.308 251.378L224.397 360.138L311.246 353.585L285.251 246.591L240.308 251.378Z" fill="#FFB8B8"/>
<path d="M331.162 478.796C331.084 479.171 330.986 479.541 330.868 479.906C320.845 483.533 310.595 486.498 300.184 488.78C297.99 481.556 293.783 467.877 290.099 456.689C287.089 447.556 284.431 440.085 283.504 439.151C280.929 436.584 283.504 433.16 283.504 433.16L272.504 398.925L267.505 383.373L265.792 416.046L263.304 463.373L263.234 464.7C263.234 464.7 259.807 474.972 261.521 476.687C263.234 478.402 259.807 485.256 259.807 485.256L258.822 494.248C257.566 494.313 256.317 494.36 255.055 494.395L254.627 494.53L254.275 494.419C252.579 494.472 250.878 494.505 249.171 494.519C248.449 494.524 247.727 494.53 247 494.53C246.659 494.53 246.319 494.53 245.979 494.524C241.057 494.507 236.171 494.346 231.323 494.043L228.313 469.522L225.204 444.185C225.204 444.185 228.624 437.342 225.204 433.918C223.145 431.857 224.177 428.861 225.333 426.805C224.617 423.628 223.637 418.741 222.317 411.506C222.27 411.265 222.229 411.018 222.182 410.771C221.766 408.475 221.392 406.224 221.062 404.017C220.475 400.135 220.017 396.405 219.665 392.834C218.472 381.268 218.307 369.619 219.173 358.023C219.501 353.9 219.912 350.882 220.182 349.137C220.205 348.973 220.458 348.051 220.868 346.594C221.514 344.262 222.576 340.562 223.767 336.422C224.4 334.225 225.069 331.905 225.732 329.597C226.888 325.597 228.038 321.633 228.965 318.426V318.408C229.78 315.595 230.431 313.375 230.772 312.212C230.936 311.642 231.024 311.331 231.024 311.331C231.024 311.331 231.206 311.29 231.552 311.213C232.626 310.967 235.278 310.374 238.95 309.581C242.781 308.77 247.716 307.742 253.137 306.697C257.777 305.804 262.776 304.894 267.745 304.077C269.529 303.79 271.313 303.508 273.073 303.243C283.944 301.622 293.924 300.7 298.653 301.752C298.98 301.821 299.303 301.91 299.621 302.016C299.942 302.122 300.25 302.262 300.542 302.433C300.689 302.521 302.108 308.065 303.921 315.29C303.939 315.36 303.956 315.436 303.974 315.507C304.52 317.692 305.101 320.018 305.693 322.396C306.297 324.822 306.908 327.295 307.506 329.703C309.284 336.856 310.926 343.475 311.771 346.717C312.094 347.974 312.305 348.72 312.352 348.802C314.335 352.109 315.954 360.214 317.269 370.381C318.442 379.455 319.375 390.174 320.097 400.587C320.454 405.738 320.759 410.818 321.018 415.588C321.892 431.633 322.244 444.161 322.244 444.161C322.244 444.161 323.552 454.604 326.151 459.531C326.471 460.168 326.88 460.755 327.366 461.276C329.096 463.008 329.296 464.512 329.067 465.581C328.967 466.086 328.759 466.562 328.457 466.979C328.388 467.081 328.312 467.177 328.228 467.267C328.005 468.329 328.044 469.431 328.342 470.475C328.641 471.519 329.19 472.474 329.941 473.257C331.602 474.931 331.467 477.327 331.162 478.796Z" fill="#2F2E41"/>
<path d="M302.713 216.495C302.613 215.755 302.507 215.009 302.396 214.257C302.331 213.776 302.255 213.294 302.185 212.818C301.44 208.014 304.543 203.903 300.524 200.578C299.585 199.813 298.819 198.856 298.277 197.771L297.356 195.915L295.661 192.473L291.953 184.991L291.313 183.705C291.132 183.339 290.924 182.988 290.691 182.653C289.998 181.646 289.095 180.8 288.045 180.175L278.834 174.677C277.411 173.832 276.265 172.589 275.537 171.101L275.308 170.631C274.293 168.546 272.474 163.559 270.321 161.392L270.315 161.386C269.846 160.849 269.209 160.487 268.508 160.358L259.338 159.448C257.872 159.299 256.392 159.534 255.043 160.13C253.695 160.726 252.524 161.663 251.647 162.849L251.394 163.994L249.922 170.707L249.84 170.725C249.405 170.824 248.971 170.924 248.543 171.048C239.033 173.65 235.066 206.933 235.066 206.933C235.066 206.933 233.885 219.077 233.885 224.324C233.885 229.572 234.344 231.42 235.694 235.718C235.726 235.819 235.758 235.888 235.776 235.977C236.199 237.172 236.347 238.446 236.211 239.706L236.216 240.135L236.228 241.081L236.263 243.506L236.375 251.553L236.516 261.625L236.639 270.206L236.68 272.491L228.988 305.998C228.862 307.099 228.955 308.214 229.26 309.279C229.565 310.344 230.077 311.339 230.766 312.206L230.772 312.212C230.941 312.429 231.121 312.637 231.312 312.835L231.317 312.84C231.499 313.028 231.687 313.199 231.881 313.369C232.807 314.18 233.899 314.779 235.081 315.123C236.263 315.467 237.505 315.548 238.722 315.36L239.748 315.201H239.754L254.656 312.964H254.668L256.393 312.705H256.405L273.085 310.197H273.096L275.953 309.763C276.182 309.733 276.405 309.704 276.634 309.686L291.906 308.635C292.256 308.611 292.605 308.566 292.95 308.5H292.956C294.299 308.234 295.558 307.649 296.627 306.793C297.696 305.937 298.544 304.837 299.099 303.584C299.329 303.082 299.505 302.556 299.621 302.016C299.753 301.432 299.826 300.835 299.838 300.236L300.008 285.835L300.589 239.295C300.601 237.742 301.044 236.223 301.868 234.908C303.986 231.525 303.745 224.277 302.713 216.495Z" fill="#CA0000"/>
<path d="M277.108 340.793C276.893 339.606 276.941 338.387 277.248 337.22C277.555 336.054 278.113 334.969 278.884 334.042C279.656 333.115 280.62 332.369 281.711 331.855C282.801 331.342 283.991 331.074 285.196 331.071L294.724 303.344L304.013 315.414L293.541 339.894C293.413 341.921 292.546 343.83 291.105 345.259C289.664 346.689 287.749 347.54 285.724 347.651C283.698 347.762 281.702 347.125 280.114 345.861C278.526 344.597 277.456 342.794 277.108 340.793H277.108Z" fill="#9E616A"/>
<path d="M313.461 282.458L311.32 287.861L308.328 321.286C307.398 321.52 306.51 321.894 305.693 322.396C303.919 323.494 302.568 325.161 301.86 327.125C301.152 329.089 301.128 331.235 301.792 333.214L302.672 335.857L296.13 333.843L285.376 330.536L272.697 326.636L274.845 319.665C275.342 318.063 275.442 316.364 275.138 314.715C274.833 313.066 274.133 311.515 273.096 310.197C272.84 309.869 272.564 309.557 272.269 309.263L273.073 303.243L273.548 299.666L267.746 304.077L256.399 312.705H256.393L254.891 313.85C254.891 313.85 254.809 313.545 254.656 312.963C254.369 311.842 253.829 309.692 253.137 306.697C249.708 291.77 247.183 276.65 245.574 261.42C245.222 257.99 244.917 254.477 244.671 250.912C244.419 247.241 244.231 243.518 244.131 239.771C243.286 209.271 247.968 177.297 267.535 160.945C268.481 160.952 269.42 161.102 270.321 161.392C278.242 163.829 286.931 175.74 292.939 184.262C294.358 186.277 295.626 188.097 296.699 189.56L299.298 193.102C302.847 197.941 305.303 203.494 306.497 209.376C306.749 210.622 306.947 211.882 307.09 213.159L309.929 239.307V246.043L313.461 282.458Z" fill="#CA0000"/>
<path d="M14.3096 329.331C19.4064 335.377 24.9191 341.058 30.8075 346.334L463.544 346.922C469.433 341.646 474.946 335.964 480.042 329.918L14.3096 329.331Z" fill="#CCCCCC"/>
<path d="M249.171 494.518C248.449 494.524 247.728 494.53 247 494.53C246.66 494.53 246.32 494.53 245.979 494.524C241.057 494.507 236.172 494.346 231.324 494.043L231.441 495L231.024 494.025L221.725 472.353L228.314 469.522L240.4 464.324L244.067 476.945L247.575 489.033L248.619 492.615L249.171 494.518Z" fill="#FFB6B6"/>
<path d="M206.089 469.357L203.461 490.695C197.482 489.638 191.582 488.363 185.76 486.872V469.363L206.089 469.357Z" fill="#FFB6B6"/>
<path d="M113.397 430.03V455.267C109.83 452.971 106.329 450.582 102.895 448.102V430.03H113.397Z" fill="#CACACA"/>
<path d="M154.085 425.824V438.434C154.084 440.757 153.162 442.985 151.522 444.628C149.882 446.271 147.657 447.195 145.337 447.197H101.64C93.2976 441.109 85.344 434.504 77.8255 427.422C74.2642 424.074 70.8066 420.621 67.4526 417.062H145.337C147.657 417.065 149.881 417.989 151.521 419.632C153.161 421.275 154.083 423.502 154.085 425.824Z" fill="#3F3D56"/>
<path d="M256.493 493.937L255.056 494.395L254.627 494.53L254.275 494.418C252.58 494.471 250.878 494.505 249.171 494.518C248.449 494.524 247.728 494.53 247 494.53C246.66 494.53 246.32 494.53 245.979 494.524C241.057 494.507 236.172 494.346 231.324 494.043L231.441 495L231.024 494.025C229.288 493.908 227.557 493.784 225.832 493.631L212.18 470.743L184.083 423.645L180.826 418.189C180.826 418.189 169.72 421.478 154.003 424.632C142.157 427.017 127.695 429.313 113.397 430.065C109.871 430.253 106.357 430.347 102.895 430.318C93.9482 430.259 85.353 429.419 77.8257 427.422C74.2644 424.074 70.8068 420.621 67.4529 417.062C61.7354 411.009 56.327 404.672 51.2483 398.073C51.1799 395.651 51.3035 393.228 51.6179 390.826C51.6707 390.426 51.7235 390.021 51.788 389.61L53.3897 362.381L65.2879 360.807L83.3935 358.411L103.007 355.815L105.166 372.742C105.166 372.742 120.438 371.966 139.787 372.225C170.864 372.648 212.45 375.749 218.082 389.058C218.61 390.309 219.138 391.571 219.666 392.834C230.602 419.058 240.646 446.998 247.47 466.849C248.772 470.632 249.951 474.115 251.001 477.239C254.469 487.558 256.493 493.937 256.493 493.937Z" fill="#2F2E41"/>
<path d="M223.227 404.064C222.94 406.554 222.637 409.035 222.318 411.506C219.502 433.36 215.624 454.234 212.18 470.743C210.496 478.802 208.912 485.814 207.603 491.4C206.219 491.182 204.838 490.948 203.461 490.695C197.483 489.638 191.583 488.363 185.761 486.871C184.03 486.431 182.309 485.971 180.598 485.491L184.083 423.646L185.233 403.189L221.062 404.017L223.227 404.064Z" fill="#2F2E41"/>
<path d="M280.838 308.406C282.332 307.57 283.991 307.073 285.697 306.949C287.404 306.825 289.117 307.077 290.716 307.687C292.315 308.297 293.761 309.251 294.952 310.482C296.143 311.712 297.05 313.189 297.609 314.808L339.208 314.857L327.286 332.909L289.611 330.094C286.831 330.854 283.87 330.567 281.288 329.287C278.706 328.008 276.683 325.824 275.601 323.151C274.52 320.477 274.456 317.5 275.421 314.782C276.386 312.065 278.313 309.796 280.838 308.406L280.838 308.406Z" fill="#FFB6B6"/>
<path d="M303.517 332.817L378.437 340.268L378.634 340.015C379.012 339.531 416.515 291.475 422.816 280.035C426.693 273.162 428.104 265.168 426.817 257.381L426.774 257.191L426.625 257.064C423.569 254.501 419.733 253.057 415.747 252.969C411.762 252.882 407.865 254.156 404.701 256.583C389.484 268.381 377.214 283.558 368.86 300.917L364.12 310.796L309.14 313.157L303.517 332.817Z" fill="#CA0000"/>
<path d="M274.622 468.241L263.58 493.978C261.996 494.089 260.41 494.18 258.822 494.248C257.566 494.313 256.317 494.36 255.055 494.395L254.627 494.53L254.275 494.418C252.579 494.471 250.878 494.505 249.171 494.518C248.449 494.524 247.727 494.53 247 494.53C246.66 494.53 246.319 494.53 245.979 494.524L246.712 492.01L247.575 489.033L251.001 477.239L255.947 460.212L263.304 463.372L274.622 468.241Z" fill="#FFB6B6"/>
<path d="M354.184 470.097C348.51 472.84 342.722 475.364 336.818 477.668L331.044 467.948L349.654 459.766L354.184 470.097Z" fill="#FFB6B6"/>
<path d="M393.452 425.918V446.393C390.019 448.93 386.519 451.377 382.95 453.734V425.918H393.452Z" fill="#CACACA"/>
<path d="M430.343 412.95C427.392 416.227 424.353 419.421 421.226 422.53C413.866 429.867 406.051 436.733 397.828 443.086H351.01C349.767 443.086 348.538 442.821 347.406 442.307C346.274 441.794 345.264 441.044 344.445 440.108L344.439 440.091C343.463 438.988 342.784 437.653 342.468 436.214L342.462 436.202C342.329 435.585 342.263 434.955 342.262 434.323V421.713C342.264 419.391 343.186 417.163 344.826 415.521C346.466 413.878 348.69 412.953 351.01 412.95H430.343Z" fill="#3F3D56"/>
<path d="M449.634 363.732L444.559 385.499C445.055 388.652 445.22 391.849 445.052 395.037C442.646 398.267 440.165 401.433 437.607 404.534C435.248 407.394 432.827 410.2 430.343 412.95C427.392 416.228 424.353 419.421 421.226 422.53C413.083 425.091 403.484 426.136 393.452 426.206C389.99 426.236 386.476 426.142 382.95 425.954C368.652 425.202 354.19 422.906 342.344 420.521C339.211 419.899 336.266 419.264 333.556 418.648C328.422 417.491 324.127 416.41 321.018 415.588C317.515 414.671 315.52 414.078 315.52 414.078L302.197 436.414L290.099 456.689L268.057 493.638C266.566 493.773 265.074 493.886 263.58 493.978C261.996 494.09 260.41 494.18 258.822 494.248C257.566 494.313 256.317 494.36 255.055 494.395L254.627 494.53L254.275 494.419L248.619 492.616L246.713 492.011L239.854 489.826C239.854 489.826 241.385 484.998 244.066 476.946C245.052 473.991 246.19 470.597 247.469 466.85C252.087 453.306 258.488 435.116 265.792 416.046C267.957 410.384 270.198 404.64 272.504 398.925C274.393 394.232 276.317 389.557 278.265 384.947C281.65 376.953 298.008 372.642 317.269 370.381C318.249 370.269 319.234 370.158 320.226 370.052C330.041 369.018 340.455 368.484 350.194 368.237C355.07 368.114 359.775 368.067 364.152 368.061C365.566 368.061 366.941 368.065 368.276 368.073H368.282C371.89 368.09 375.211 368.143 378.133 368.202C378.702 368.214 379.254 368.231 379.793 368.243H379.799C380.163 368.249 380.521 368.261 380.873 368.267C387.262 368.431 391.181 368.631 391.181 368.631L392.701 356.696L393.012 354.288L393.305 351.998V351.992L393.34 351.704L393.581 351.698L397.805 351.616L433.312 350.923L452.708 350.541L449.634 363.732Z" fill="#2F2E41"/>
<path d="M358.561 467.924C357.112 468.664 355.651 469.392 354.184 470.097C348.511 472.84 342.722 475.364 336.818 477.668C335.134 478.331 333.444 478.972 331.737 479.588C331.549 479.324 331.356 479.06 331.162 478.795C323.019 467.607 312.669 452.841 302.197 436.414C297.814 429.542 293.408 422.377 289.131 415.059L320.097 400.587L323.57 398.966L333.556 418.647L342.462 436.202L344.445 440.108L358.561 467.924Z" fill="#2F2E41"/>
<path d="M403.509 223.215C419.265 223.215 432.037 210.429 432.037 194.656C432.037 178.883 419.265 166.097 403.509 166.097C387.753 166.097 374.98 178.883 374.98 194.656C374.98 210.429 387.753 223.215 403.509 223.215Z" fill="#FFB6B6"/>
<path d="M402.565 221.975C409.235 225.179 417.445 224.094 423.813 220.324C430.181 216.555 434.867 210.408 438.142 203.767C440.541 198.903 442.283 193.334 440.894 188.091C439.505 182.848 433.964 178.456 428.773 180.008C432.329 177.142 431.915 171.229 429.041 167.677C426.167 164.125 421.633 162.417 417.251 161.13C410.893 159.261 404.211 157.942 397.654 158.898C391.096 159.854 384.639 163.408 381.554 169.279C379.412 169.831 377.147 169.657 375.115 168.783C373.082 167.909 371.397 166.386 370.322 164.45C369.607 166.311 369.525 168.355 370.088 170.267C370.651 172.179 371.827 173.852 373.436 175.028L364.554 170.204C362.29 173.346 364.347 178.137 367.785 179.917C371.222 181.697 375.377 181.222 379.128 180.271C382.879 179.32 378.453 187.251 382.322 187.327C386.191 187.404 390.377 189.431 391.485 193.142C392.065 195.087 391.727 197.174 391.898 199.196C392.069 201.218 393.037 203.461 394.994 203.988C396.231 204.32 397.584 203.879 398.81 204.249C400.33 204.707 401.257 206.335 401.39 207.918C401.524 209.502 401.028 211.064 400.538 212.575C398.602 218.549 404.815 215.201 402.879 221.175L402.565 221.975Z" fill="#2F2E41"/>
<path d="M458.54 306.333C458.305 282.746 457.238 266.671 455.372 258.548C450.361 236.711 427.216 232.729 423.59 232.236C423.204 231.206 422.611 230.268 421.846 229.478C421.082 228.688 420.164 228.064 419.149 227.645C418.133 227.226 417.043 227.02 415.945 227.041C414.847 227.062 413.765 227.309 412.766 227.766L396.321 235.307C392.984 236.842 389.999 239.047 387.549 241.785C385.1 244.523 383.239 247.736 382.081 251.224L379.641 258.683L378.415 308.741L382.463 329.797L382.469 329.808L385.197 343.992L383.319 346.812L372.6 362.904L372.419 363.186L372.413 363.192L371.943 363.891C372.595 364.249 373.24 364.602 373.874 364.954C375.516 365.859 377.118 366.745 378.679 367.615C379.054 367.826 379.424 368.032 379.793 368.243H379.799C380.034 368.372 380.269 368.502 380.497 368.631C386.353 371.908 391.682 374.945 396.485 377.74C397.154 378.128 397.817 378.515 398.468 378.897C420.645 391.883 431.886 399.835 437.607 404.534C440.165 401.433 442.646 398.267 445.052 395.037C447.234 392.118 449.348 389.148 451.394 386.127C451.752 383.766 451.992 381.405 452.227 379.091C452.509 376.307 452.802 373.423 453.295 370.587C453.512 369.33 452.679 368.137 451.875 366.986C451.13 365.911 450.426 364.901 450.573 363.95C450.725 362.969 451.805 361.9 452.855 360.86C453.999 359.721 455.184 358.546 455.354 357.307C455.824 353.854 456.24 350.388 456.604 346.911C457.202 341.255 457.662 335.582 457.983 329.891C458.434 322.032 458.62 314.18 458.54 306.333Z" fill="#CA0000"/>
<path d="M349.944 389.592C350.427 387.949 351.265 386.431 352.398 385.147C353.53 383.863 354.93 382.843 356.499 382.159C358.068 381.475 359.768 381.144 361.479 381.189C363.19 381.234 364.87 381.653 366.401 382.419L396.155 353.316L400.254 374.564L371.371 398.942C369.916 401.432 367.6 403.301 364.861 404.195C362.122 405.09 359.15 404.947 356.509 403.795C353.868 402.642 351.74 400.56 350.531 397.942C349.321 395.324 349.112 392.353 349.944 389.592L349.944 389.592Z" fill="#FFB6B6"/>
<path d="M383.21 391.147L441.943 343.993L441.907 343.674C441.839 343.064 435.044 282.462 431.55 269.875C429.516 262.249 424.937 255.549 418.574 250.888L418.411 250.782L418.216 250.796C414.241 251.105 410.491 252.76 407.582 255.489C404.673 258.218 402.781 261.858 402.216 265.809C399.59 284.896 401.433 304.334 407.597 322.587L411.115 332.965L373.486 373.163L383.21 391.147Z" fill="#CA0000"/>
<path d="M82.4393 222.702C96.4982 222.702 107.895 211.293 107.895 197.219C107.895 183.145 96.4982 171.736 82.4393 171.736C68.3804 171.736 56.9834 183.145 56.9834 197.219C56.9834 211.293 68.3804 222.702 82.4393 222.702Z" fill="#A0616A"/>
<path d="M48.2392 391.315L48.1003 391.12C40.685 380.728 51.8377 355.754 53.5197 352.134C51.5223 351.485 49.8113 350.163 48.6782 348.393C47.5451 346.623 47.0598 344.515 47.3052 342.427L48.0303 336.256L48.7862 330.204L43.3713 324.783L43.3561 324.648L40.2399 297.352L35.7091 279.223C34.002 272.369 34.1475 265.184 36.1307 258.406C38.1139 251.627 41.8633 245.499 46.9942 240.65L57.4671 238.985L70.195 226.708H90.7201L97.7577 233.44C111.594 244.793 114.879 239.861 130.481 261.234L119.31 290.697L125.554 334.152L125.557 342.017L128.81 345.635C129.981 346.938 130.832 348.498 131.296 350.188C131.759 351.879 131.821 353.655 131.478 355.374L131.05 357.515C132.703 358.224 134.162 359.32 135.305 360.71C136.447 362.1 137.24 363.744 137.617 365.504L138.759 370.84C139.737 372.131 146.187 380.741 146.187 383.095C146.187 383.448 145.926 383.79 145.367 384.169C140.971 387.148 116.675 393.223 105.922 388.916C94.4673 384.331 48.9345 391.209 48.4758 391.279L48.2392 391.315Z" fill="#3F3D56"/>
<path d="M35.3066 287.943L56.4726 283.795C64.3003 295.497 68.5026 327.496 68.5026 327.496L91.9039 376.08C93.3423 376.954 94.5234 378.195 95.3269 379.675C96.1304 381.156 96.5277 382.823 96.4782 384.507C96.4287 386.191 95.9343 387.832 95.0452 389.262C94.1562 390.693 92.9042 391.862 91.417 392.651C89.9297 393.439 88.2603 393.819 86.5786 393.752C84.897 393.684 83.2633 393.172 81.8438 392.267C80.4244 391.361 79.2699 390.096 78.4981 388.599C77.7262 387.102 77.3645 385.426 77.4497 383.744L46.9284 326.181L35.3066 287.943Z" fill="#A0616A"/>
<path d="M35.1882 292.97L34.5864 261.478L44.547 248.138C46.512 245.526 49.1675 243.517 52.2134 242.336C55.2594 241.156 58.5743 240.853 61.7837 241.459C66.1287 242.311 69.9884 244.783 72.5824 248.375C75.1764 251.967 76.3113 256.411 75.7574 260.808C74.0667 274.144 70.2284 290.832 61.5446 294.607L61.4566 294.645L70.4566 326.155L37.0805 330.822L35.1882 292.97Z" fill="#3F3D56"/>
<path d="M160.896 290.187C160.896 290.187 135.495 270.312 121.719 267.457L109.525 285.266L142.502 305.497L206.705 324.08C207.829 325.33 209.264 326.26 210.863 326.776C212.463 327.291 214.17 327.374 215.811 327.015C217.453 326.657 218.971 325.87 220.21 324.734C221.45 323.599 222.367 322.155 222.869 320.55C223.371 318.945 223.44 317.235 223.069 315.595C222.697 313.954 221.899 312.441 220.755 311.21C219.61 309.978 218.161 309.071 216.553 308.582C214.946 308.092 213.238 308.037 211.602 308.422L160.896 290.187Z" fill="#A0616A"/>
<path d="M116.207 294.182L89.7355 277.155L84.208 261.446C83.1341 258.359 82.9443 255.032 83.66 251.841C84.3758 248.651 85.9686 245.725 88.2584 243.394C91.3836 240.254 95.5832 238.42 100.008 238.261C104.433 238.103 108.752 239.632 112.094 242.54C122.22 251.368 135.27 254.327 133.57 263.65L138.446 264.363L163.376 283.317L148.674 313.674L116.207 294.182Z" fill="#3F3D56"/>
<path d="M53.5654 180.475C56.4238 176.048 61.7878 173.098 66.9878 173.927C67.4718 170.605 68.857 167.479 70.9925 164.89C73.1281 162.302 75.9321 160.349 79.0994 159.246C82.2667 158.142 85.6757 157.929 88.9554 158.631C92.235 159.332 95.2595 160.921 97.6996 163.224C99.2307 162.005 101.456 161.94 103.274 162.666C105.063 163.48 106.62 164.731 107.802 166.304C110.786 170.029 112.705 174.495 113.355 179.225C114.005 183.955 113.361 188.773 111.493 193.166C112.128 190.854 109.813 188.678 107.474 188.159C105.134 187.64 102.681 188.131 100.308 187.793C97.2678 187.36 94.5347 185.594 91.4894 185.197C88.9301 184.863 86.3564 185.52 83.8606 186.178C81.3649 186.837 78.7978 187.508 76.2349 187.203C73.6717 186.899 70.3703 196.622 70.4146 203.471C70.423 204.769 70.156 206.435 68.8889 206.71C67.3286 207.05 66.4245 204.894 64.9393 204.306C63.6162 203.783 62.03 204.753 61.5693 206.1C61.3821 206.79 61.3621 207.513 61.5108 208.212C61.6596 208.91 61.9728 209.563 62.4245 210.116C63.3374 211.212 64.4211 212.153 65.6338 212.903L65.0221 213.412C64.0047 214.758 61.8942 214.816 60.4278 213.984C58.9615 213.151 57.9978 211.67 57.1291 210.224C54.416 205.706 52.0361 200.893 51.0786 195.71C50.1212 190.527 50.7072 184.902 53.5654 180.475Z" fill="#2F2E41"/>
<path d="M287.936 118.89C285.554 115.246 281.083 112.817 276.75 113.499C276.347 110.765 275.192 108.192 273.412 106.061C271.633 103.93 269.296 102.322 266.656 101.414C264.017 100.505 261.176 100.33 258.442 100.908C255.709 101.485 253.188 102.793 251.155 104.689C249.879 103.685 248.024 103.632 246.51 104.229C245.018 104.9 243.721 105.93 242.736 107.225C240.249 110.291 238.65 113.967 238.108 117.861C237.567 121.755 238.103 125.721 239.66 129.338C239.13 127.434 241.06 125.643 243.009 125.215C244.959 124.788 247.004 125.192 248.981 124.914C251.515 124.558 253.793 123.104 256.33 122.777C258.463 122.502 260.608 123.043 262.688 123.585C264.768 124.127 266.908 124.68 269.043 124.429C271.18 124.178 273.931 132.182 273.894 137.82C273.887 138.889 274.11 140.261 275.165 140.487C276.466 140.766 277.219 138.992 278.457 138.508C279.56 138.077 280.882 138.876 281.266 139.985C281.422 140.552 281.438 141.148 281.314 141.723C281.19 142.298 280.929 142.836 280.553 143.291C279.792 144.193 278.889 144.968 277.878 145.585L278.388 146.004C279.236 147.112 280.995 147.16 282.217 146.474C283.439 145.789 284.242 144.57 284.966 143.379C287.227 139.66 289.21 135.698 290.008 131.431C290.806 127.165 290.318 122.534 287.936 118.89Z" fill="#2F2E41"/>
<path opacity="0.2" d="M277.118 223.3C279.7 234.069 280.892 245.126 280.663 256.198C280.443 267.272 278.825 278.274 275.848 288.942C274.168 294.966 272.049 300.859 269.507 306.573C269.05 307.599 270.566 308.497 271.027 307.462C275.615 297.166 278.86 286.322 280.68 275.196C282.508 264.068 282.917 252.753 281.9 241.522C281.324 235.225 280.293 228.979 278.815 222.832C278.55 221.73 276.853 222.196 277.118 223.3H277.118Z" fill="black"/>
<path opacity="0.2" d="M441.448 298.657L426.735 334.612C424.367 340.399 422.069 346.221 419.605 351.967C417.386 357.141 414.856 362.337 411.121 366.602C407.352 370.908 402.281 374.402 396.488 375.085C395.377 375.217 395.364 376.98 396.488 376.847C401.78 376.224 406.523 373.59 410.353 369.948C414.495 366.01 417.413 360.994 419.796 355.846C422.452 350.108 424.711 344.175 427.105 338.325L434.627 319.942L443.145 299.126C443.574 298.077 441.872 297.621 441.448 298.657Z" fill="black"/>
<path d="M267.042 331.293C267.3 332.046 267.79 332.698 268.442 333.155C269.094 333.612 269.874 333.851 270.669 333.836L286.212 333.436C287.013 333.42 287.788 333.145 288.421 332.652C289.053 332.159 289.509 331.475 289.721 330.701L291.92 307.156C292.701 307.51 293.55 307.685 294.407 307.668C295.151 307.649 295.884 307.484 296.564 307.182C297.245 306.879 297.859 306.446 298.372 305.906C298.885 305.366 299.287 304.73 299.554 304.034C299.822 303.339 299.95 302.598 299.931 301.853C299.912 301.108 299.747 300.374 299.445 299.693C299.143 299.012 298.71 298.397 298.171 297.883C297.631 297.37 296.996 296.968 296.302 296.7C295.607 296.432 294.866 296.304 294.122 296.323C293.78 296.322 293.438 296.357 293.104 296.429C292.74 296.034 292.297 295.721 291.805 295.508C291.312 295.295 290.78 295.188 290.244 295.194L266.336 295.812C266.137 295.819 265.94 295.843 265.746 295.885C265.222 295.983 264.724 296.192 264.288 296.498C263.851 296.805 263.485 297.201 263.214 297.661C262.943 298.121 262.774 298.634 262.717 299.165C262.661 299.695 262.719 300.232 262.887 300.739L267.042 331.293ZM292.371 305.558L293.937 299.947C294.115 299.299 294.119 298.615 293.948 297.965C294.024 297.965 294.091 297.929 294.167 297.929C295.24 297.907 296.279 298.311 297.054 299.054C297.83 299.797 298.279 300.817 298.304 301.892C298.33 302.966 297.928 304.006 297.188 304.785C296.448 305.563 295.43 306.016 294.357 306.044C293.663 306.066 292.977 305.898 292.371 305.558Z" fill="#2F2E41"/>
<path d="M265.746 295.885C266.255 298.801 271.982 300.85 278.868 300.494C285.2 300.202 290.378 297.976 291.326 295.338C290.975 295.234 290.61 295.186 290.244 295.194L266.336 295.812C266.138 295.819 265.94 295.844 265.746 295.885Z" fill="#3F3D56"/>
<path d="M215.272 299.564C215.441 299.058 215.499 298.521 215.442 297.99C215.386 297.459 215.216 296.946 214.946 296.486C214.675 296.026 214.309 295.63 213.872 295.323C213.435 295.017 212.938 294.808 212.413 294.71C212.219 294.669 212.022 294.644 211.824 294.637L187.915 294.019C187.379 294.013 186.847 294.12 186.355 294.333C185.862 294.546 185.42 294.86 185.056 295.254C184.721 295.182 184.379 295.147 184.037 295.148C182.534 295.11 181.078 295.672 179.989 296.709C178.899 297.746 178.266 299.174 178.228 300.678C178.191 302.183 178.751 303.64 179.787 304.731C180.823 305.821 182.25 306.455 183.753 306.493C184.609 306.51 185.459 306.335 186.239 305.982L188.438 329.526C188.65 330.3 189.106 330.985 189.739 331.478C190.371 331.971 191.146 332.246 191.947 332.261L207.49 332.662C208.286 332.676 209.065 332.437 209.717 331.98C210.369 331.523 210.859 330.871 211.118 330.118L215.272 299.564ZM183.802 304.869C182.729 304.841 181.711 304.388 180.971 303.61C180.231 302.831 179.83 301.791 179.855 300.717C179.88 299.643 180.33 298.622 181.105 297.879C181.881 297.136 182.919 296.732 183.992 296.754C184.068 296.754 184.135 296.79 184.211 296.79C184.041 297.441 184.045 298.124 184.223 298.772L185.788 304.383C185.182 304.723 184.496 304.891 183.802 304.869Z" fill="#2F2E41"/>
<path d="M212.413 294.71C211.904 297.626 206.177 299.676 199.291 299.319C192.959 299.027 187.782 296.801 186.833 294.163C187.184 294.059 187.549 294.011 187.915 294.019L211.823 294.637C212.022 294.644 212.219 294.669 212.413 294.71Z" fill="#3F3D56"/>
<path d="M189.755 243.565C190.953 242.689 192.328 242.087 193.784 241.801C195.239 241.514 196.74 241.551 198.18 241.908C199.619 242.265 200.964 242.933 202.117 243.866C203.271 244.8 204.207 245.975 204.858 247.309L240.654 242.974L232.292 259.76L199.581 261.303C197.27 262.25 194.691 262.314 192.335 261.485C189.979 260.656 188.009 258.99 186.798 256.803C185.587 254.617 185.219 252.062 185.764 249.622C186.309 247.182 187.729 245.027 189.755 243.565L189.755 243.565Z" fill="#9E616A"/>
<path d="M306.497 209.376C305.441 211.45 304.156 213.864 302.713 216.495C297.644 225.769 290.68 237.738 285.317 246.848C280.735 254.618 277.315 260.315 277.221 260.474L277.074 260.709L245.575 261.419L238.816 261.572L236.516 261.625L211.833 262.183L212.068 260.715L214.374 246.161L214.609 244.675L236.228 241.08L244.131 239.771L261.662 236.857L264.707 227.86C270.07 212.045 279.032 197.695 290.885 185.942C291.231 185.607 291.583 185.29 291.953 184.991C292.276 184.732 292.604 184.485 292.939 184.262C294.358 186.277 295.626 188.097 296.699 189.56L299.298 193.102C302.847 197.941 305.303 203.494 306.497 209.376Z" fill="#CA0000"/>
<path d="M175.517 263.163C175.775 263.916 176.266 264.568 176.917 265.025C177.569 265.482 178.349 265.721 179.144 265.706L194.687 265.306C195.489 265.29 196.263 265.016 196.896 264.523C197.528 264.03 197.984 263.345 198.196 262.571L200.395 239.027C201.176 239.38 202.025 239.555 202.882 239.538C204.385 239.5 205.811 238.866 206.847 237.776C207.883 236.685 208.444 235.227 208.406 233.723C208.368 232.219 207.735 230.791 206.646 229.754C205.557 228.716 204.1 228.155 202.597 228.193C202.255 228.192 201.914 228.227 201.579 228.299C201.215 227.905 200.772 227.591 200.28 227.378C199.787 227.165 199.256 227.058 198.719 227.064L174.811 227.682C174.613 227.689 174.415 227.714 174.221 227.755C173.697 227.853 173.2 228.062 172.763 228.368C172.326 228.675 171.96 229.071 171.689 229.531C171.418 229.991 171.249 230.504 171.192 231.035C171.136 231.566 171.194 232.102 171.362 232.609L175.517 263.163ZM200.847 237.428L202.412 231.817C202.59 231.169 202.594 230.486 202.424 229.835C202.499 229.835 202.567 229.799 202.642 229.799C203.716 229.777 204.754 230.181 205.529 230.924C206.305 231.667 206.754 232.688 206.78 233.762C206.805 234.836 206.403 235.876 205.663 236.655C204.923 237.433 203.905 237.886 202.832 237.914C202.139 237.936 201.452 237.768 200.847 237.428Z" fill="#CCCCCC"/>
<path d="M174.221 227.755C174.731 230.67 180.457 232.72 187.343 232.364C193.675 232.072 198.853 229.846 199.801 227.208C199.45 227.104 199.085 227.055 198.719 227.063L174.811 227.681C174.613 227.689 174.415 227.713 174.221 227.755Z" fill="#3F3D56"/>
</g>
<defs>
<clipPath id="clip0_322_4263">
<rect width="494" height="495" fill="white"/>
</clipPath>
</defs>
</svg>
