<svg width="610" height="396" fill="none" xmlns="http://www.w3.org/2000/svg"><path d="M148.954 120.657c-21.789-12.743-50.825-15.406-71.813-1.383a116.297 116.297 0 0 1 63.42 48.513c5.657 8.948 11.018 19.49 21.064 22.827 6.251 2.076 13.229.796 19.164-2.061 5.935-2.857 11.024-7.173 16.041-11.442l1.602-.37c-12.123-22.14-27.689-43.34-49.478-56.084z" fill="#F0F0F0"/><path d="M77.373 119.75a99.402 99.402 0 0 1 59.451 14.358 42.81 42.81 0 0 1 10.35 8.53 24.55 24.55 0 0 1 5.336 11.769c.73 4.023 1.01 8.223 2.706 11.998a15.021 15.021 0 0 0 9.302 8.04c5.017 1.648 10.327 1.396 15.512.968 5.756-.475 11.728-1.059 17.24 1.084.667.259 1.031-.792.364-1.051-9.589-3.728-19.875.482-29.723-1.292-4.596-.827-8.97-3.045-11.236-7.298-1.982-3.718-2.275-8.049-2.979-12.129a26.202 26.202 0 0 0-4.788-11.701 39.558 39.558 0 0 0-9.985-8.896 96.435 96.435 0 0 0-27.558-12.211 101.199 101.199 0 0 0-34.207-3.261c-.712.054-.492 1.146.215 1.092z" fill="#000"/><path d="M131.295 130.256a14.914 14.914 0 0 0-5.513-18.508c-.601-.389-1.233.527-.631.916a13.815 13.815 0 0 1 5.093 17.228c-.292.653.761 1.014 1.051.364zM152.409 152.318a28.747 28.747 0 0 1-20.949.139c-.668-.258-1.032.794-.364 1.051a29.9 29.9 0 0 0 21.798-.189c.665-.268.176-1.267-.485-1.001zM100.443 120.35a8.447 8.447 0 0 1-5.183 6.108c-.669.259-.179 1.258.485 1.001a9.464 9.464 0 0 0 5.749-6.745.574.574 0 0 0-.343-.707.555.555 0 0 0-.708.343z" fill="#000"/><path d="M68.441 204.294c.422-.15.844-.3 1.274-.445a111.305 111.305 0 0 1 17.451-4.549c.458-.087.922-.169 1.381-.244a117.206 117.206 0 0 1 43.141.95 113.804 113.804 0 0 1 16.6 4.847c7.461 2.811 15.328 6.451 23.054 6.627.806.028 1.612.005 2.415-.067l25.002-32.689c.02-.103.047-.2.067-.303l1.058-1.26c-.272-.124-.556-.247-.827-.372-.157-.073-.32-.138-.477-.211-.106-.046-.213-.092-.307-.14a1.881 1.881 0 0 0-.099-.04c-.093-.048-.185-.083-.271-.125a365.35 365.35 0 0 0-4.781-2.049c-.007-.005-.007-.005-.02-.004-12.213-5.097-24.96-9.219-37.926-11.276-.39-.062-.788-.129-1.189-.176a108.542 108.542 0 0 0-17.681-1.241c-3.24.048-6.475.26-9.694.635a79.861 79.861 0 0 0-24.027 6.778c-15.157 6.99-27.91 18.749-33.712 34.171-.148.395-.291.782-.432 1.183z" fill="#F0F0F0"/><path d="M68.912 204.538a99.406 99.406 0 0 1 56.113-24.329 42.814 42.814 0 0 1 13.4.579 24.552 24.552 0 0 1 11.345 6.184c3.005 2.773 5.758 5.957 9.385 7.951a15.017 15.017 0 0 0 12.267.819c4.998-1.705 9.086-5.104 12.969-8.566 4.31-3.845 8.726-7.907 14.417-9.515.689-.195.347-1.253-.342-1.059-9.9 2.798-15.579 12.351-24.51 16.865-4.167 2.106-8.995 2.969-13.365.938-3.821-1.776-6.662-5.057-9.681-7.891a26.18 26.18 0 0 0-10.868-6.46 39.553 39.553 0 0 0-13.328-1.092 96.42 96.42 0 0 0-29.355 6.843 101.164 101.164 0 0 0-29.276 17.991c-.536.472.297 1.211.83.742h-.001z" fill="#000"/><path d="M118.291 180.463a14.916 14.916 0 0 0-15.545-11.459.557.557 0 0 0 .048 1.112 13.811 13.811 0 0 1 14.438 10.688c.161.698 1.219.352 1.059-.341zM148.432 185.365a28.74 28.74 0 0 1-16.643 12.723c-.688.198-.346 1.256.342 1.059a29.898 29.898 0 0 0 17.291-13.274c.37-.615-.622-1.119-.99-.508zM87.693 191.128a8.443 8.443 0 0 1-.46 7.997c-.378.609.614 1.113.99.507a9.459 9.459 0 0 0 .529-8.846.575.575 0 0 0-.7-.358.559.559 0 0 0-.359.7z" fill="#000"/><path d="M536.209 320.127c-2.557-25.112-17.527-50.133-41.229-58.815a116.298 116.298 0 0 1-1.784 79.828c-3.891 9.845-9.244 20.39-6.015 30.472 2.009 6.274 7.157 11.154 12.964 14.263 5.808 3.109 12.294 4.673 18.701 6.208l1.243 1.076c10.733-22.847 18.676-47.92 16.12-73.032z" fill="#F0F0F0"/><path d="M495.733 261.781a99.401 99.401 0 0 1 23.459 56.481 42.784 42.784 0 0 1-.785 13.39 24.546 24.546 0 0 1-6.359 11.248c-2.818 2.962-6.045 5.665-8.095 9.261a15.028 15.028 0 0 0-1.007 12.253c1.627 5.024 4.962 9.164 8.365 13.099 3.777 4.37 7.77 8.848 9.29 14.563.184.692 1.248.366 1.064-.325-2.644-9.943-12.109-15.768-16.484-24.768-2.042-4.199-2.83-9.039-.732-13.378 1.835-3.793 5.16-6.583 8.04-9.558a26.198 26.198 0 0 0 6.627-10.767 39.578 39.578 0 0 0 1.298-13.31 96.47 96.47 0 0 0-6.389-29.457 101.173 101.173 0 0 0-17.538-29.55c-.463-.543-1.215.278-.754.818z" fill="#000"/><path d="M519.043 311.525a14.913 14.913 0 0 0 11.698-15.366.559.559 0 0 0-.571-.521.557.557 0 0 0-.542.551 13.805 13.805 0 0 1-10.91 14.272c-.7.15-.371 1.213.325 1.064zM513.676 341.587a28.745 28.745 0 0 1-12.464-16.837c-.187-.692-1.251-.366-1.064.325a29.897 29.897 0 0 0 13.006 17.494c.608.38 1.127-.605.522-.982zM508.852 280.766a8.44 8.44 0 0 1-7.989-.584c-.603-.387-1.122.597-.522.982a9.457 9.457 0 0 0 8.837.666.576.576 0 0 0 .369-.695.56.56 0 0 0-.695-.369z" fill="#000"/><path d="M422.185 304.42c.37.252.74.505 1.11.767a111.119 111.119 0 0 1 13.964 11.412c.341.317.681.644 1.012.971a117.205 117.205 0 0 1 24.672 35.402 113.816 113.816 0 0 1 5.873 16.266c2.13 7.683 3.828 16.183 8.242 22.526.453.667.947 1.306 1.479 1.912l41.144.916c.094-.044.189-.08.284-.125l1.641.112c-.06-.292-.128-.594-.187-.887-.034-.17-.077-.34-.111-.51-.025-.113-.051-.226-.068-.33a1.807 1.807 0 0 0-.025-.104c-.017-.103-.043-.198-.06-.292a355.82 355.82 0 0 0-1.164-5.069c0-.01 0-.01-.009-.019-3.085-12.87-7.272-25.595-13.257-37.28-.18-.352-.359-.713-.558-1.065a108.63 108.63 0 0 0-9.424-15.011 95.977 95.977 0 0 0-6.23-7.455 79.84 79.84 0 0 0-19.642-15.408c-14.583-8.12-31.6-11.486-47.477-7.078-.406.113-.803.227-1.209.349z" fill="#F0F0F0"/><path d="M422.266 304.944a99.411 99.411 0 0 1 52.737 30.973 42.817 42.817 0 0 1 7.434 11.164 24.548 24.548 0 0 1 1.695 12.81c-.467 4.062-1.416 8.163-.888 12.268a15.032 15.032 0 0 0 6.573 10.39c4.324 3.032 9.48 4.329 14.566 5.422 5.647 1.215 11.531 2.386 16.185 6.034.564.442 1.217-.459.654-.9-8.097-6.347-19.162-5.299-28.073-9.851-4.159-2.124-7.702-5.514-8.639-10.241-.819-4.133.156-8.363.665-12.472a26.2 26.2 0 0 0-1.192-12.587 39.552 39.552 0 0 0-6.977-11.408 96.439 96.439 0 0 0-22.836-19.673 101.153 101.153 0 0 0-31.794-13.036c-.698-.154-.803.954-.11 1.107z" fill="#000"/><path d="M470.827 330.628a14.912 14.912 0 0 0 .088-19.312c-.462-.546-1.333.148-.869.694a13.81 13.81 0 0 1-.119 17.964c-.469.541.434 1.192.9.654zM484.64 357.862a28.744 28.744 0 0 1-20.089-5.939c-.566-.44-1.219.461-.654.9a29.898 29.898 0 0 0 20.917 6.138c.715-.063.536-1.162-.174-1.099zM444.17 312.204a8.432 8.432 0 0 1-6.73 4.344c-.715.054-.536 1.153.174 1.099a9.465 9.465 0 0 0 7.457-4.789.575.575 0 0 0-.124-.777.558.558 0 0 0-.777.123z" fill="#000"/><path d="M292.285 71.112a9.442 9.442 0 0 0-10.783 9.66l-31.313 12.053 14.187 10.137 27.56-13a9.49 9.49 0 0 0 8.547-9.27 9.492 9.492 0 0 0-8.198-9.58z" fill="#FFB6B6"/><path d="m173.39 65.195-5.298 9.631a27.66 27.66 0 0 0 9.388 15.595c8.111 6.84 50.519 32.317 50.519 32.317l53.538-26.878-9.366-12.445L230.139 97.5 206.427 75.11l-33.037-9.915z" fill="#FF9797"/><path d="m168.525 216.222 5.536 1.043-33.381 177.158-5.536-1.043 33.381-177.158zM223.628 393.38l-5.536 1.043-33.381-177.158 5.536-1.043 33.381 177.158z" fill="#CACACA"/><path d="M183.241 224.568c-23.076 0-41.783-6.095-41.783-13.614 0-7.519 18.707-13.615 41.783-13.615s41.782 6.096 41.782 13.615-18.706 13.614-41.782 13.614z" fill="#CACACA"/><path d="m271.984 383.265 11.511-.001 5.476-44.4-16.989.001.002 44.4z" fill="#FFB6B6"/><path d="m269.048 394.423 37.117-.001v-.47a14.45 14.45 0 0 0-14.447-14.447h-.001l-22.669.001v14.917z" fill="#2F2E41"/><path d="m216.103 322.852 10.055 5.605 26.403-36.116-14.84-8.272-21.618 38.783z" fill="#FFB6B6"/><path d="m208.106 331.168 32.42 18.072.229-.41a14.45 14.45 0 0 0-5.584-19.653h-.001l-19.801-11.038-7.263 13.029zM150.722 177.668s-5.582 17.292 28.663 39.161l44.104 43.948 45.827 109.62 27.206-12.197-41.839-111.679-24.466-42.838-.71-23.245-6.018-16.385-43.66-15.492-29.107 29.107z" fill="#2F2E41"/><path d="m240.269 322.134 45.519-68.628a16.3 16.3 0 0 0-2.183-20.639l-46.089-45.083-7.814-7.815h-17.487l8.2 30.254 28.447 32.246-32.886 58.193 24.293 21.472z" fill="#2F2E41"/><path d="m206.815 83.64-13.716-19.63-31.34-2.52s-26.943 25.384-22.041 58.809c4.902 33.426 9.596 66.289 9.596 66.289s48.825-34.741 74.176-22.535L206.815 83.64z" fill="#FF9797"/><path d="M216.127 186.047a9.438 9.438 0 0 0-8.509-7.746 9.437 9.437 0 0 0-4.054.551l-21.295-25.929-5.156 16.656 21.012 22.069a9.497 9.497 0 0 0 11.489 5.196 9.494 9.494 0 0 0 6.513-10.797z" fill="#FFB6B6"/><path d="m189.318 184.362 9.379-13.547-26.632-35.51 13.72-29.399-.999-34.97-11.338-2.094-.14.07a27.859 27.859 0 0 0-12.074 14.065c-2.829 7.07-9.142 33.613-12.654 48.804a17.713 17.713 0 0 0 4.762 16.604l35.976 35.977z" fill="#FF9797"/><path d="M165.41 46.83c-6.104-10.267-2.728-23.537 7.539-29.64 10.268-6.104 23.539-2.729 29.642 7.539 6.103 10.267 2.728 23.538-7.54 29.641-10.267 6.104-23.538 2.728-29.641-7.54z" fill="#FFB6B6"/><path d="M170.173 28.014c.229 3.14-2.717 14.72-2.717 14.72-2.158-3.63 1.233 8.437 1.233 8.437-35.427-24.694-7.435-49.504 3.515-47.298-.228-3.14 8.702-1.897 8.702-1.897 3.403-5.299 10.86 1.735 10.86 1.735l-1.439-2.42c5.79 1.472 11.513 19.367 11.513 19.367-1.964 7.72-31.896 4.216-31.667 7.356z" fill="#2F2E41"/><path d="M1.118 395.309h607.767a1.118 1.118 0 0 0 0-2.236H1.118A1.12 1.12 0 0 0 0 394.191a1.116 1.116 0 0 0 1.118 1.118z" fill="#CACACA"/></svg>