<svg width="818" height="573" fill="none" xmlns="http://www.w3.org/2000/svg"><g clip-path="url(#a)"><path d="M818 .507H.35V573H818V.507z" fill="#E6E6E6"/><path d="M794.619 72.311H23.729v466.82h770.89V72.311z" fill="#fff"/><path d="M817.651 0H0v37.976h817.651V0z" fill="#E7301C"/><path d="M25.814 26.454c3.555 0 6.438-3.151 6.438-7.038 0-3.888-2.883-7.039-6.438-7.039-3.556 0-6.439 3.151-6.439 7.039 0 3.887 2.883 7.038 6.439 7.038zM50.251 26.454c3.556 0 6.439-3.151 6.439-7.038 0-3.888-2.883-7.039-6.439-7.039-3.555 0-6.438 3.151-6.438 7.039 0 3.887 2.883 7.038 6.438 7.038zM74.69 26.454c3.555 0 6.437-3.151 6.437-7.038 0-3.888-2.882-7.039-6.438-7.039-3.555 0-6.438 3.151-6.438 7.039 0 3.887 2.882 7.038 6.438 7.038z" fill="#fff"/><path d="M269.354 110.708H118.579v178.831h150.775V110.708zM484.56 110.708H333.785v178.831H484.56V110.708zM699.767 110.708H548.992v178.831h150.775V110.708zM269.354 321.908H118.579v178.831h150.775V321.908zM484.56 321.908H333.785v178.831H484.56V321.908zM699.767 321.908H548.992v178.831h150.775V321.908z" fill="#E6E6E6"/><path d="M177.145 218.841c14.076 0 25.486-12.475 25.486-27.863 0-15.389-11.41-27.864-25.486-27.864s-25.487 12.475-25.487 27.864c0 15.388 11.411 27.863 25.487 27.863z" fill="#FFB9B9"/><path d="M167.189 212.31s3.186 16.544 3.186 18.286c0 1.741 15.133 9.578 15.133 9.578l13.539-2.612 4.779-15.674s-7.964-13.061-7.964-18.285l-28.673 8.707z" fill="#FFB9B9"/><path d="M155.043 168.529s8.092-19.168 23.601-14.744c15.51 4.423 24.276 11.058 24.95 17.693.675 6.635-.337 16.587-.337 16.587s-1.686-13.638-12.475-10.689c-10.789 2.948-27.647.737-27.647.737l-2.698 26.539s-3.034-4.791-6.406-1.843c-3.372 2.949-9.778-28.382 1.012-34.28z" fill="#2F2E41"/><path d="m257.983 282.841-6.366-31.351c-3.193-10.451-11.151-19.151-11.151-19.151l-39.278-15.101h-.01c-.076 3.796-1.247 7.468-3.344 10.494-2.098 3.026-5.015 5.251-8.337 6.358-11.951 4.344-20.179-10.297-20.179-10.297l-33.202 27.697s-10.35 9.586-9.549 27.871l-1.101 10.177h135.58l-3.063-6.697z" fill="#E7301C"/><path d="M391.775 232.727c19.106 0 34.594-17.975 34.594-40.147 0-22.173-15.488-40.147-34.594-40.147-19.105 0-34.593 17.974-34.593 40.147 0 22.172 15.488 40.147 34.593 40.147z" fill="#2F2E41"/><path d="M422.469 253.333c10.051 0 18.199-8.908 18.199-19.896 0-10.988-8.148-19.895-18.199-19.895-10.051 0-18.198 8.907-18.198 19.895s8.147 19.896 18.198 19.896z" fill="#2F2E41"/><path d="m409.795 206.792 9.749 27.711-24.697 11.369-2.169-5.374-7.582-18.785 24.699-14.921z" fill="#9F616A"/><path d="M390.297 224.91c12.025 0 21.773-10.657 21.773-23.803 0-13.147-9.748-23.804-21.773-23.804s-21.774 10.657-21.774 23.804c0 13.146 9.749 23.803 21.774 23.803z" fill="#9F616A"/><path d="M372.5 198.496c13.685-9.984 17.776-12.37 33.462-8.514l.941-25.019-40.536 9.297 6.133 24.236z" fill="#2F2E41"/><path d="m460.487 255.101-.601.076a.388.388 0 0 0-.05-.065c-2.382-2.605-13.753-7.343-22.231-10.626h-.01a400.826 400.826 0 0 0-9.599-3.589l-10.25-11.523c-2.582 3.173-8.038 5.624-13.223 7.353a96.488 96.488 0 0 1-12.091 3.152h-.01l-2.122 7.408s-24.053 19.906-25.995 22.029h-.01v.021c-.155.242-.22.54-.18.832v.055a105.099 105.099 0 0 0-1.862 19.314h104.74v-6.719c0-9.236-6.506-27.718-6.506-27.718z" fill="#575A89"/><path d="M653.092 289.539h-51.79l-2.853-30.761-.17-1.871-.35-3.71-1.431-15.506-1.792 16.655-3.784 35.193h-9.409l.35-10.954.351-11.107.15-4.476 1.932-60.887c-.148-9.649 2.644-19.077 7.937-26.8 2.939-4.182 6.731-7.557 11.074-9.854 4.343-2.297 9.117-3.453 13.94-3.376 4.922-.017 9.781 1.211 14.195 3.59 4.414 2.379 8.265 5.844 11.25 10.122 5.471 7.8 8.399 17.376 8.318 27.204l.891 36.856 1.191 49.682z" fill="#2F2E41"/><path d="M617.248 223.903c12.581 0 22.78-11.15 22.78-24.904s-10.199-24.904-22.78-24.904c-12.581 0-22.78 11.15-22.78 24.904s10.199 24.904 22.78 24.904z" fill="#FBBEBE"/><path d="M605.858 216.787s6.508 24.015 0 31.13c-6.509 7.116-8.136 9.784-8.136 9.784l18.712 27.573 32.543-43.583s-22.78-7.115-17.085-26.683l-26.034 1.779zM676.134 289.538h-19.219l-.32-3.6-.29-3.327 8.848-1.214 10.67-1.456.12 3.732.191 5.865z" fill="#FBBEBE"/><path d="M677.452 283.495s-3.255-22.236-5.695-31.13c-2.441-8.895-4.882-8.895-4.882-8.895v-.002c-2.873-3.14-9.779-3.699-14.974-3.611-3.644.044-6.446.394-6.446.394l-29.018 33.464-14.614-21.241v-.011c-1.316.112-2.62.358-3.894.734a24.203 24.203 0 0 0-3.223 1.149c-4.526 2.114-8.697 5.039-12.342 8.656h-.01c-2.102 2.068-3.343 3.589-3.343 3.589a110.858 110.858 0 0 0-7.227 22.947h92.989l.21-4.574v-.009l12.469-1.46z" fill="#E7301C"/><path d="M598.129 194.996c14.713-8.672 20.756-8.304 39.051 0l4.882-13.002c-.003-2.448-.894-4.795-2.477-6.526-1.583-1.731-3.73-2.705-5.97-2.708H600.88c-2.239.003-4.386.977-5.969 2.708-1.584 1.731-2.474 4.078-2.477 6.526l5.695 13.002zM191.973 365.192a5.596 5.596 0 0 0-3.481.85 9.895 9.895 0 0 0-2.354 3.397c-2.547 4.89-5.995 9.148-10.126 12.505-3.008 2.41-6.834 5.414-6.319 9.857a14.086 14.086 0 0 0 1.467 4.161c2.775 6.125 10.349 10.859 9.604 17.849 2.758-5.047-.93-7.543 1.827-12.59 1.313-2.404 3.595-5.117 5.578-3.607.663.505 1.099 1.412 1.791 1.855 1.649 1.058 3.404-.965 4.864-2.398 5.034-4.941 12.194-3.646 18.459-2.107 2.958.727 6.207 1.681 7.955 4.771 2.299 4.064-2.184 8.452-3.317 13.046a2.738 2.738 0 0 0-.012 1.195 2.6 2.6 0 0 0 .495 1.066c.242.306.548.544.891.692.344.149.716.205 1.084.162 1.88-.202 4.107-.368 4.218-1.27 2.365.092 5.263-.201 6.276-2.894.31-1.065.474-2.174.486-3.292.372-4.523 2.128-8.649 3.291-12.953 1.163-4.305 1.669-9.35-.294-13.166a15.003 15.003 0 0 0-2.572-3.417c-11.139-11.786-25.785-13.729-39.811-13.712z" fill="#2F2E41"/><path d="M183.187 422.639s2.423 22.071-6.46 23.837c-8.883 1.766 8.075 31.782 8.075 31.782l40.377 5.297-9.691-35.313s-6.46-2.649-2.422-20.306c4.037-17.656-29.879-5.297-29.879-5.297z" fill="#9F616A"/><path d="M201.357 437.206c13.379 0 24.226-11.858 24.226-26.485 0-14.627-10.847-26.485-24.226-26.485-13.38 0-24.227 11.858-24.227 26.485 0 14.627 10.847 26.485 24.227 26.485z" fill="#9F616A"/><path d="M159.658 500.739c4.285-18.417 10.2-43.225 10.2-43.225s2.302.514 5.926 1.094a128.503 128.503 0 0 0 15.975 1.587c6.847.208 14.054-.284 19.629-2.396a17.937 17.937 0 0 0 5.796-3.382 11.775 11.775 0 0 0 1.941-2.199c9.69-14.128 13.724 39.723 13.724 39.723l.75 8.798h-73.941z" fill="#E7301C"/><path d="M237.063 557.643a14 14 0 0 0-.961.033l.46-.942c.16.296.321.602.501.909z" fill="#FFB8B8"/><path d="M193.153 372.122a5.093 5.093 0 0 0-2.833.601 7.051 7.051 0 0 0-1.917 2.401c-2.154 3.542-4.961 6.552-8.243 8.838-2.449 1.703-5.563 3.827-5.144 6.967a9.158 9.158 0 0 0 1.194 2.941c2.267 4.373 3.17 9.434 2.571 14.418l6.735-10.701c1.069-1.699 2.926-3.617 4.54-2.55.541.357.895.998 1.458 1.311 1.343.748 2.771-.681 3.96-1.694 4.098-3.492 9.926-2.578 15.027-1.489 2.407.513 5.052 1.187 6.475 3.372 2.365 3.63-.104 8.875 1.276 13.068.386-.296.715-.673.965-1.11.251-.437.418-.925.493-1.434 1.926.065 4.285-.142 5.11-2.045a7.636 7.636 0 0 0 .395-2.327c.303-3.197 1.732-6.113 2.679-9.155.947-3.043 1.359-6.608-.239-9.306a10.899 10.899 0 0 0-2.094-2.415c-9.068-8.33-20.99-9.703-32.408-9.691zM190.858 458.39c-5.525-6.905-8.808-16.973-8.958-17.422v-.011s-8.809-5.515-11.231-.219c-2.422 5.297-25.034 18.538-27.456 18.538a.363.363 0 0 1-.06.022c-.961.35-12.993 5.132-16.086 22.937a145.392 145.392 0 0 0-1.341 18.504h65.853c.681-7.802 1.191-15.101 1.391-21.404.291-8.788.01-15.616-1.211-19.14a5.736 5.736 0 0 0-.901-1.805zM247.483 463.358c-.04-.208-.07-.383-.1-.547a4.275 4.275 0 0 0-.541-1.313.097.097 0 0 1-.01-.033c-4.664-7.901-34.663-18.778-34.663-18.778l-1.121 4.234s.14 4.181.34 10.878c.2 6.27.44 14.74.671 24.042.16 6.073.3 12.508.43 18.898h44.873a307.193 307.193 0 0 0-9.879-37.381z" fill="#2F2E41"/><path d="m667.325 500.739 3.434-18.34 3.193-1.478.02.011c.29.121 3.763 1.729 3.763 7.825 0 1.225-.17 5.635-.45 11.982h-9.96z" fill="#575A89"/><path d="M631.263 436.678c15.399 0 27.883-13.648 27.883-30.483s-12.484-30.482-27.883-30.482-27.882 13.647-27.882 30.482 12.483 30.483 27.882 30.483z" fill="#FFB8B8"/><path d="m648.69 423.977-2.324 52.074-36.014-22.862 4.646-29.212h33.692z" fill="#FFB8B8"/><path d="m659.147 478.591-2.362 22.148h-18.908l-20.52-43.104-5.785-12.136-2.773-1.981 3.213-.799 2.533 2.003 28.337 22.444 4.544-14.915.12-.383 1.141-3.754 10.46 30.477z" fill="#E7301C"/><path d="M614.418 376.348s3.485-19.051 23.235-15.241l-2.323 1.27s18.588-2.54 16.264 8.891c0 0 15.103 10.161 11.618 21.591a139.247 139.247 0 0 0-4.647 20.322l-3.485-3.81s-3.486-25.402-24.397-22.862c-15.684 1.905-22.074 10.002-23.708 15.837a54.475 54.475 0 0 1-2.87 7.982l-1.305.313s-6.97-27.942 11.618-34.293zM673.972 480.932l-.02-.011-14.804-15.036V455.73l-11.431-9.848-.17 5.985-1.182 40.698-19.008-28.584-12.812-19.259-2.302-3.447.56-3.229-7.097 8.788-25.684 21.065-2.202 1.806a75.08 75.08 0 0 0-6.967 8.885c-.691 1.128-3.834 10.101-7.928 22.149h114.36c.28-6.347.45-10.757.45-11.983 0-6.095-3.473-7.704-3.763-7.824zM406.878 372.712c-18.894 0-34.21 18.584-34.21 41.507v29.125h8.193l4.744-10.791-1.186 10.791h52.663l4.312-9.81-1.078 9.81h5.93v-22.868c0-26.379-17.626-47.764-39.368-47.764z" fill="#2F2E41"/><path d="M379.269 500.739h-22.251l-.21-19.84c-.01-.208-.01-.405-.01-.613l4.454-5.482.08-.098 17.006 11.774.931 14.259z" fill="#D0CDE1"/><path d="M403.851 439.274c13.451 0 24.355-11.921 24.355-26.626 0-14.705-10.904-26.626-24.355-26.626-13.45 0-24.354 11.921-24.354 26.626 0 14.705 10.904 26.626 24.354 26.626z" fill="#FBBEBE"/><path d="M389.888 428.624s7.144 40.47 3.897 44.731c-3.247 4.26 34.421-7.811 34.421-7.811s-12.34-27.69-5.845-43.311l-32.473 6.391z" fill="#FBBEBE"/><path d="M455.963 455.993h-.01c-.574-1.327-1.566-2.383-2.793-2.977a190.87 190.87 0 0 0-12.272-5.165c-5.984-2.245-12.512-2.024-18.357.624a20.19 20.19 0 0 0-1.682.832s-23.813 4.957-26.646 4.333a6.434 6.434 0 0 0-.64-.099 10.36 10.36 0 0 0-1.291-.12c-5.541-.281-11.037 1.209-15.816 4.29-7.817 4.957-19.408 13.744-19.648 22.302l-.221.273.221 20.453h104.52c.21-19.599.33-34.328.33-35.324 0-3.097-5.695-9.422-5.695-9.422z" fill="#E7301C"/><path d="M416.604 384.146c-1.646-2.417-3.78-4.386-6.235-5.756a16.72 16.72 0 0 0-7.922-2.142h-.672c-12.949 0-23.447 12.811-23.447 28.614h4.339l.701-5.831 1.027 5.831h25.735l2.157-4.933-.539 4.933h5.062c2.363 12.827-1.031 25.654-10.183 38.481h8.624l4.313-9.867-1.078 9.867h16.44l3.234-22.694c0-16.995-9.033-31.407-21.556-36.503z" fill="#2F2E41"/><path d="M421.331 386.536c7.076 0 12.813-6.272 12.813-14.009 0-7.736-5.737-14.008-12.813-14.008-7.077 0-12.814 6.272-12.814 14.008 0 7.737 5.737 14.009 12.814 14.009z" fill="#2F2E41"/></g><defs><clipPath id="a"><path fill="#fff" d="M0 0h818v573H0z"/></clipPath></defs></svg>