<svg width="152" height="88" fill="none" xmlns="http://www.w3.org/2000/svg"><path d="M152 85.634a9.704 9.704 0 0 1-6.865-.005 9.68 9.68 0 0 1-5.137-4.545l-21.85-30.149-3.166-4.215-25.353 34.402a9.278 9.278 0 0 1-4.86 4.384c-2.1.824-4.43.856-6.552.09l32.667-43.729L80.497 2.366a10.123 10.123 0 0 1 6.766-.03 10.097 10.097 0 0 1 5.267 4.239l22.648 30.521 22.775-30.395a9.079 9.079 0 0 1 4.856-4.262 9.109 9.109 0 0 1 6.468.04l-11.793 15.615-15.973 20.746a4.215 4.215 0 0 0-1.41 3.141 4.201 4.201 0 0 0 1.41 3.14l30.426 40.52.063-.007zM.013 41.324l2.66-13.112C9.98 2.284 39.773-8.504 60.268 7.547c12.002 9.409 14.997 22.73 14.408 37.744H7.068C5.972 72.105 25.365 88.294 50.16 80.022a25.83 25.83 0 0 0 10.471-7.03 25.75 25.75 0 0 0 5.882-11.143c1.31-4.209 3.47-4.93 7.435-3.716a34.183 34.183 0 0 1-5.32 14.382 34.274 34.274 0 0 1-11.077 10.623 39.798 39.798 0 0 1-24.094 4.543A39.76 39.76 0 0 1 11.28 77.242 41.502 41.502 0 0 1 .893 52.862c0-1.484-.507-2.875-.849-4.208C.014 46.213 0 43.771 0 41.33l.013-.006zm7.137-1.807h61.142C67.912 20.079 55.62 6.29 39.222 6.163 20.97 5.91 7.91 19.396 7.106 39.428l.044.089z" fill="#000"/></svg>