<svg width="136" height="153" fill="none" xmlns="http://www.w3.org/2000/svg"><path d="M68 153a11.798 11.798 0 0 1-5.894-1.574L43.352 140.35c-2.798-1.563-1.435-2.115-.509-2.437a37.492 37.492 0 0 0 8.484-3.825 1.441 1.441 0 0 1 1.397.104l14.41 8.54a1.862 1.862 0 0 0 1.742 0l56.197-32.359a1.771 1.771 0 0 0 .86-1.52v-64.73a1.803 1.803 0 0 0-.871-1.547L68.865 10.244a1.772 1.772 0 0 0-1.736 0L10.965 42.587a1.805 1.805 0 0 0-.887 1.536v64.703a1.718 1.718 0 0 0 .882 1.497l15.413 8.874c8.353 4.164 13.469-.743 13.469-5.672V49.642a1.637 1.637 0 0 1 1.643-1.64h7.12a1.645 1.645 0 0 1 1.643 1.64v63.889c0 11.12-6.069 17.486-16.64 17.486a24.09 24.09 0 0 1-12.942-3.508l-14.772-8.454a11.84 11.84 0 0 1-4.316-4.329 11.817 11.817 0 0 1-1.578-5.9V44.123a11.793 11.793 0 0 1 1.571-5.91 11.828 11.828 0 0 1 4.323-4.336L62.096 1.506a12.325 12.325 0 0 1 11.809 0l56.196 32.37a11.853 11.853 0 0 1 4.317 4.325A11.813 11.813 0 0 1 136 44.095v64.731a11.838 11.838 0 0 1-1.584 5.898 11.876 11.876 0 0 1-4.315 4.331l-56.197 32.371A11.807 11.807 0 0 1 68 153z" fill="#83CD29"/><path d="M58 87.36c0-.433.174-.85.483-1.156.31-.307.729-.48 1.166-.48h7.295c.39.001.766.14 1.063.39.297.25.495.598.558.98 1.1 7.368 4.398 11.083 19.312 11.083 11.879 0 16.942-2.668 16.942-8.924 0-3.605-1.435-6.283-19.9-8.078-15.435-1.516-24.978-4.909-24.978-17.148C59.94 52.737 69.532 46 85.612 46c18.069 0 27.013 6.223 28.145 19.576a1.618 1.618 0 0 1-.426 1.229 1.655 1.655 0 0 1-1.195.532h-7.345a1.657 1.657 0 0 1-1.011-.361 1.638 1.638 0 0 1-.572-.904c-1.753-7.75-6.047-10.227-17.59-10.227-12.974 0-14.48 4.484-14.48 7.844 0 4.068 1.781 5.258 19.295 7.554C107.765 73.517 116 76.735 116 88.823 116 101.017 105.753 108 87.882 108 63.172 108.033 58 96.791 58 87.36z" fill="#83CD29"/></svg>