<svg width="159" height="142" fill="none" xmlns="http://www.w3.org/2000/svg"><path d="M79.947 84.64c7.796 0 14.116-6.32 14.116-14.117 0-7.796-6.32-14.117-14.116-14.117-7.797 0-14.117 6.32-14.117 14.117 0 7.796 6.32 14.117 14.117 14.117z" fill="#007ACC"/><path d="M79.947 102.89a160.294 160.294 0 0 1-50.142-6.776 63.806 63.806 0 0 1-20.65-11.056A20.006 20.006 0 0 1 .894 70.523c0-9.334 10.254-18.481 27.431-24.467a162.372 162.372 0 0 1 51.622-7.611 161.914 161.914 0 0 1 50.944 7.476 64.245 64.245 0 0 1 19.978 10.536A19.142 19.142 0 0 1 159 70.523c0 9.701-11.463 19.532-29.927 25.642a162.657 162.657 0 0 1-49.126 6.725zm0-57.692a157.81 157.81 0 0 0-49.403 7.239c-15.81 5.517-22.897 13.06-22.897 18.07 0 5.24 7.617 13.478 24.343 19.198a153.644 153.644 0 0 0 47.957 6.431 155.845 155.845 0 0 0 47.008-6.38c17.364-5.754 25.269-14.004 25.269-19.233a13.15 13.15 0 0 0-5.703-8.882 57.573 57.573 0 0 0-17.849-9.34 155.073 155.073 0 0 0-48.725-7.103z" fill="#007ACC"/><path d="M47.874 140.931a14.91 14.91 0 0 1-7.544-1.852c-8.086-4.664-10.887-18.115-7.493-35.986a162.37 162.37 0 0 1 19.199-48.522 161.924 161.924 0 0 1 31.92-40.396A64.234 64.234 0 0 1 103.065 2.13a19.147 19.147 0 0 1 16.251 0c8.408 4.845 11.191 19.685 7.267 38.73a162.655 162.655 0 0 1-18.724 45.925 160.283 160.283 0 0 1-30.921 40.052 63.803 63.803 0 0 1-19.894 12.36 27.788 27.788 0 0 1-9.17 1.734zm10.012-83.006a157.814 157.814 0 0 0-18.409 46.41c-3.122 16.46-.124 26.359 4.236 28.877 4.517 2.614 15.483.135 28.797-11.497a153.65 153.65 0 0 0 29.516-38.34 155.858 155.858 0 0 0 17.962-43.909c3.692-17.928.502-28.905-4.026-31.514a13.145 13.145 0 0 0-10.548.503 57.56 57.56 0 0 0-16.997 10.83 155.082 155.082 0 0 0-30.492 38.674l-.04-.034z" fill="#007ACC"/><path d="M112.003 141.004c-7.651 0-17.37-4.63-27.488-13.331a162.375 162.375 0 0 1-32.452-40.865 161.924 161.924 0 0 1-19.051-47.833 64.238 64.238 0 0 1-.893-22.587 19.148 19.148 0 0 1 8.098-14.043c8.396-4.862 22.643.136 37.183 13.044a162.637 162.637 0 0 1 30.436 39.154 160.287 160.287 0 0 1 19.255 46.794 63.813 63.813 0 0 1 .773 23.411 20.009 20.009 0 0 1-8.436 14.427 14.616 14.616 0 0 1-7.425 1.829zM57.908 83.409a157.822 157.822 0 0 0 31.011 39.125c12.7 10.926 22.773 13.275 27.104 10.729 4.517-2.626 7.849-13.343 4.416-30.684a153.673 153.673 0 0 0-18.47-44.67 155.86 155.86 0 0 0-29.052-37.495C59.229 8.263 48.127 5.547 43.605 8.167a13.14 13.14 0 0 0-4.828 9.385 57.56 57.56 0 0 0 .864 20.13A155.086 155.086 0 0 0 57.913 83.42l-.005-.011z" fill="#007ACC"/></svg>