<svg width="66" height="66" fill="none" xmlns="http://www.w3.org/2000/svg"><g clip-path="url(#a)"><path d="M5.156 0h55.688A5.156 5.156 0 0 1 66 5.156v55.688A5.156 5.156 0 0 1 60.844 66H5.156A5.156 5.156 0 0 1 0 60.844V5.156A5.156 5.156 0 0 1 5.156 0z" fill="#3178C6"/><path d="M38.805 51.685v7.12c1.159.594 2.528 1.04 4.11 1.336 1.58.297 3.247.445 5 .445 1.706 0 3.329-.163 4.865-.49 1.537-.326 2.884-.864 4.042-1.613a8.225 8.225 0 0 0 2.75-2.937c.676-1.21 1.014-2.704 1.014-4.484 0-1.29-.193-2.422-.58-3.393a7.927 7.927 0 0 0-1.67-2.593c-.727-.757-1.6-1.435-2.616-2.036a28.05 28.05 0 0 0-3.441-1.702 43.401 43.401 0 0 1-2.517-1.124 12.744 12.744 0 0 1-1.892-1.113c-.52-.378-.921-.779-1.203-1.201a2.527 2.527 0 0 1-.423-1.435c0-.49.126-.931.378-1.324.253-.393.61-.731 1.07-1.013.46-.282 1.024-.5 1.692-.657a9.825 9.825 0 0 1 2.227-.233 14.849 14.849 0 0 1 3.875.545 13.84 13.84 0 0 1 1.949.701c.612.271 1.197.6 1.748.98V28.81a17.399 17.399 0 0 0-3.552-.924c-1.284-.2-2.758-.3-4.42-.3-1.694 0-3.297.182-4.811.545-1.515.363-2.847.93-3.998 1.702a8.51 8.51 0 0 0-2.728 2.949c-.668 1.194-1.002 2.622-1.002 4.283 0 2.122.612 3.932 1.837 5.43 1.225 1.498 3.084 2.767 5.579 3.805.92.375 1.834.768 2.74 1.18.845.385 1.577.786 2.193 1.2.616.416 1.102.869 1.459 1.358.356.49.534 1.046.534 1.67.003.448-.112.89-.334 1.279-.223.393-.56.734-1.013 1.023-.453.29-1.017.516-1.693.679-.675.163-1.466.245-2.372.245-1.544 0-3.073-.27-4.587-.813a13.692 13.692 0 0 1-4.21-2.436zm-11.868-17.72h9.157v-5.863H10.57v5.863h9.113V60.07h7.254V33.965z" fill="#fff"/></g><defs><clipPath id="a"><path fill="#fff" d="M0 0h66v66H0z"/></clipPath></defs></svg>